<svg xmlns='http://www.w3.org/2000/svg' height="390" width="900.666" >
<polygon points="100,34.641 110,17.3205 120,34.641 110,51.9615 " style="fill:darkblue;stroke:black;stroke-width:0" />
<polygon points="120,34.641 140,34.641 130,17.3205 110,17.3205 " style="fill:cadetblue;stroke:black;stroke-width:0" />
<polygon points="140,34.641 160,34.641 150,17.3205 130,17.3205 " style="fill:cadetblue;stroke:black;stroke-width:0" />
<polygon points="160,34.641 180,34.641 170,17.3205 150,17.3205 " style="fill:cadetblue;stroke:black;stroke-width:0" />
<polygon points="180,34.641 200,34.641 190,17.3205 170,17.3205 " style="fill:cadetblue;stroke:black;stroke-width:0" />
<polygon points="90,51.9615 100,34.641 110,51.9615 100,69.282 " style="fill:darkblue;stroke:black;stroke-width:0" />
<polygon points="110,51.9615 120,34.641 130,51.9615 120,69.282 " style="fill:darkblue;stroke:black;stroke-width:0" />
<polygon points="130,51.9615 150,51.9615 140,34.641 120,34.641 " style="fill:cadetblue;stroke:black;stroke-width:0" />
<polygon points="150,51.9615 170,51.9615 160,34.641 140,34.641 " style="fill:cadetblue;stroke:black;stroke-width:0" />
<polygon points="170,51.9615 190,51.9615 180,34.641 160,34.641 " style="fill:cadetblue;stroke:black;stroke-width:0" />
<polygon points="190,51.9615 210,51.9615 200,34.641 180,34.641 " style="fill:cadetblue;stroke:black;stroke-width:0" />
<polygon points="80,69.282 90,51.9615 100,69.282 90,86.6025 " style="fill:darkblue;stroke:black;stroke-width:0" />
<polygon points="100,69.282 110,51.9615 120,69.282 110,86.6025 " style="fill:darkblue;stroke:black;stroke-width:0" />
<polygon points="120,69.282 130,51.9615 140,69.282 130,86.6025 " style="fill:darkblue;stroke:black;stroke-width:0" />
<polygon points="140,69.282 160,69.282 150,51.9615 130,51.9615 " style="fill:cadetblue;stroke:black;stroke-width:0" />
<polygon points="160,69.282 180,69.282 170,51.9615 150,51.9615 " style="fill:cadetblue;stroke:black;stroke-width:0" />
<polygon points="180,69.282 200,69.282 190,51.9615 170,51.9615 " style="fill:cadetblue;stroke:black;stroke-width:0" />
<polygon points="200,69.282 220,69.282 210,51.9615 190,51.9615 " style="fill:cadetblue;stroke:black;stroke-width:0" />
<polygon points="70,86.6025 80,69.282 90,86.6025 80,103.923 " style="fill:darkblue;stroke:black;stroke-width:0" />
<polygon points="90,86.6025 100,69.282 110,86.6025 100,103.923 " style="fill:darkblue;stroke:black;stroke-width:0" />
<polygon points="110,86.6025 120,69.282 130,86.6025 120,103.923 " style="fill:darkblue;stroke:black;stroke-width:0" />
<polygon points="130,86.6025 140,69.282 150,86.6025 140,103.923 " style="fill:darkblue;stroke:black;stroke-width:0" />
<polygon points="150,86.6025 170,86.6025 160,69.282 140,69.282 " style="fill:cadetblue;stroke:black;stroke-width:0" />
<polygon points="170,86.6025 190,86.6025 180,69.282 160,69.282 " style="fill:cadetblue;stroke:black;stroke-width:0" />
<polygon points="190,86.6025 210,86.6025 200,69.282 180,69.282 " style="fill:cadetblue;stroke:black;stroke-width:0" />
<polygon points="210,86.6025 230,86.6025 220,69.282 200,69.282 " style="fill:cadetblue;stroke:black;stroke-width:0" />
<polygon points="80,103.923 90,86.6025 100,103.923 90,121.244 " style="fill:darkblue;stroke:black;stroke-width:0" />
<polygon points="100,103.923 110,86.6025 120,103.923 110,121.244 " style="fill:darkblue;stroke:black;stroke-width:0" />
<polygon points="120,103.923 130,86.6025 140,103.923 130,121.244 " style="fill:darkblue;stroke:black;stroke-width:0" />
<polygon points="160,103.923 170,86.6025 150,86.6025 140,103.923 " style="fill:darkcyan;stroke:black;stroke-width:0" />
<polygon points="180,103.923 190,86.6025 170,86.6025 160,103.923 " style="fill:darkcyan;stroke:black;stroke-width:0" />
<polygon points="200,103.923 210,86.6025 190,86.6025 180,103.923 " style="fill:darkcyan;stroke:black;stroke-width:0" />
<polygon points="220,103.923 230,86.6025 210,86.6025 200,103.923 " style="fill:darkcyan;stroke:black;stroke-width:0" />
<polygon points="90,121.244 100,103.923 110,121.244 100,138.564 " style="fill:darkblue;stroke:black;stroke-width:0" />
<polygon points="110,121.244 120,103.923 130,121.244 120,138.564 " style="fill:darkblue;stroke:black;stroke-width:0" />
<polygon points="150,121.244 160,103.923 140,103.923 130,121.244 " style="fill:darkcyan;stroke:black;stroke-width:0" />
<polygon points="170,121.244 180,103.923 160,103.923 150,121.244 " style="fill:darkcyan;stroke:black;stroke-width:0" />
<polygon points="190,121.244 200,103.923 180,103.923 170,121.244 " style="fill:darkcyan;stroke:black;stroke-width:0" />
<polygon points="210,121.244 220,103.923 200,103.923 190,121.244 " style="fill:darkcyan;stroke:black;stroke-width:0" />
<polygon points="100,138.564 110,121.244 120,138.564 110,155.885 " style="fill:darkblue;stroke:black;stroke-width:0" />
<polygon points="140,138.564 150,121.244 130,121.244 120,138.564 " style="fill:darkcyan;stroke:black;stroke-width:0" />
<polygon points="160,138.564 170,121.244 150,121.244 140,138.564 " style="fill:darkcyan;stroke:black;stroke-width:0" />
<polygon points="180,138.564 190,121.244 170,121.244 160,138.564 " style="fill:darkcyan;stroke:black;stroke-width:0" />
<polygon points="200,138.564 210,121.244 190,121.244 180,138.564 " style="fill:darkcyan;stroke:black;stroke-width:0" />
<polygon points="130,155.885 140,138.564 120,138.564 110,155.885 " style="fill:darkcyan;stroke:black;stroke-width:0" />
<polygon points="150,155.885 160,138.564 140,138.564 130,155.885 " style="fill:darkcyan;stroke:black;stroke-width:0" />
<polygon points="170,155.885 180,138.564 160,138.564 150,155.885 " style="fill:darkcyan;stroke:black;stroke-width:0" />
<polygon points="190,155.885 200,138.564 180,138.564 170,155.885 " style="fill:darkcyan;stroke:black;stroke-width:0" />
</svg>