<svg xmlns='http://www.w3.org/2000/svg' height="200" width="200">
<polygon points="40,140 60,140 60,160 40,160" style="fill:darkgrey;stroke:black;stroke-width:1" />
<polygon points="60,140 80,140 80,160 60,160" style="fill:dodgerblue;stroke:black;stroke-width:1" />
<polygon points="80,140 100,140 100,160 80,160" style="fill:darkgrey;stroke:black;stroke-width:1" />
<polygon points="100,140 120,140 120,160 100,160" style="fill:dodgerblue;stroke:black;stroke-width:1" />
<polygon points="40,120 60,120 60,140 40,140" style="fill:dodgerblue;stroke:black;stroke-width:1" />
<polygon points="60,120 80,120 80,140 60,140" style="fill:darkgrey;stroke:black;stroke-width:1" />
<polygon points="80,120 100,120 100,140 80,140" style="fill:dodgerblue;stroke:black;stroke-width:1" />
<polygon points="100,120 120,120 120,140 100,140" style="fill:darkgrey;stroke:black;stroke-width:1" />
<polygon points="40,100 60,100 60,120 40,120" style="fill:darkgrey;stroke:black;stroke-width:1" />
<polygon points="60,100 80,100 80,120 60,120" style="fill:dodgerblue;stroke:black;stroke-width:1" />
<polygon points="80,100 100,100 100,120 80,120" style="fill:darkgrey;stroke:black;stroke-width:1" />
<polygon points="100,100 120,100 120,120 100,120" style="fill:dodgerblue;stroke:black;stroke-width:1" />
<polygon points="40,80 60,80 60,100 40,100" style="fill:dodgerblue;stroke:black;stroke-width:1" />
<polygon points="60,80 80,80 80,100 60,100" style="fill:darkgrey;stroke:black;stroke-width:1" />
<polygon points="80,80 100,80 100,100 80,100" style="fill:dodgerblue;stroke:black;stroke-width:1" />
<polygon points="100,80 120,80 120,100 100,100" style="fill:darkgrey;stroke:black;stroke-width:1" />
</svg>