<svg xmlns='http://www.w3.org/2000/svg' height="390" width="900.666" >
<line x1="120" y1="23.094" x2="110" y2="28.8675" style="stroke:rgb(0,0,0);stroke-width:2" />
<line x1="140" y1="23.094" x2="130" y2="28.8675" style="stroke:rgb(0,0,0);stroke-width:2" />
<line x1="150" y1="40.4145" x2="150" y2="28.8675" style="stroke:rgb(0,0,0);stroke-width:2" />
<line x1="160" y1="23.094" x2="170" y2="28.8675" style="stroke:rgb(0,0,0);stroke-width:2" />
<line x1="110" y1="40.4145" x2="100" y2="46.188" style="stroke:rgb(0,0,0);stroke-width:2" />
<line x1="120" y1="57.735" x2="120" y2="46.188" style="stroke:rgb(0,0,0);stroke-width:2" />
<line x1="130" y1="40.4145" x2="140" y2="46.188" style="stroke:rgb(0,0,0);stroke-width:2" />
<line x1="170" y1="40.4145" x2="160" y2="46.188" style="stroke:rgb(0,0,0);stroke-width:2" />
<line x1="180" y1="57.735" x2="180" y2="46.188" style="stroke:rgb(0,0,0);stroke-width:2" />
<line x1="100" y1="57.735" x2="90" y2="63.5085" style="stroke:rgb(0,0,0);stroke-width:2" />
<line x1="110" y1="75.0555" x2="110" y2="63.5085" style="stroke:rgb(0,0,0);stroke-width:2" />
<line x1="140" y1="57.735" x2="130" y2="63.5085" style="stroke:rgb(0,0,0);stroke-width:2" />
<line x1="160" y1="57.735" x2="150" y2="63.5085" style="stroke:rgb(0,0,0);stroke-width:2" />
<line x1="170" y1="75.0555" x2="170" y2="63.5085" style="stroke:rgb(0,0,0);stroke-width:2" />
<line x1="200" y1="57.735" x2="190" y2="63.5085" style="stroke:rgb(0,0,0);stroke-width:2" />
<line x1="220" y1="57.735" x2="210" y2="63.5085" style="stroke:rgb(0,0,0);stroke-width:2" />
<line x1="230" y1="75.0555" x2="230" y2="63.5085" style="stroke:rgb(0,0,0);stroke-width:2" />
<line x1="80" y1="92.376" x2="80" y2="80.829" style="stroke:rgb(0,0,0);stroke-width:2" />
<line x1="90" y1="75.0555" x2="100" y2="80.829" style="stroke:rgb(0,0,0);stroke-width:2" />
<line x1="130" y1="75.0555" x2="120" y2="80.829" style="stroke:rgb(0,0,0);stroke-width:2" />
<line x1="140" y1="92.376" x2="140" y2="80.829" style="stroke:rgb(0,0,0);stroke-width:2" />
<line x1="150" y1="75.0555" x2="160" y2="80.829" style="stroke:rgb(0,0,0);stroke-width:2" />
<line x1="190" y1="75.0555" x2="180" y2="80.829" style="stroke:rgb(0,0,0);stroke-width:2" />
<line x1="200" y1="92.376" x2="200" y2="80.829" style="stroke:rgb(0,0,0);stroke-width:2" />
<line x1="210" y1="75.0555" x2="220" y2="80.829" style="stroke:rgb(0,0,0);stroke-width:2" />
<line x1="240" y1="92.376" x2="240" y2="80.829" style="stroke:rgb(0,0,0);stroke-width:2" />
<line x1="90" y1="109.697" x2="90" y2="98.1495" style="stroke:rgb(0,0,0);stroke-width:2" />
<line x1="100" y1="92.376" x2="110" y2="98.1495" style="stroke:rgb(0,0,0);stroke-width:2" />
<line x1="120" y1="92.376" x2="130" y2="98.1495" style="stroke:rgb(0,0,0);stroke-width:2" />
<line x1="160" y1="92.376" x2="150" y2="98.1495" style="stroke:rgb(0,0,0);stroke-width:2" />
<line x1="180" y1="92.376" x2="170" y2="98.1495" style="stroke:rgb(0,0,0);stroke-width:2" />
<line x1="190" y1="109.697" x2="190" y2="98.1495" style="stroke:rgb(0,0,0);stroke-width:2" />
<line x1="220" y1="92.376" x2="210" y2="98.1495" style="stroke:rgb(0,0,0);stroke-width:2" />
<line x1="230" y1="109.697" x2="230" y2="98.1495" style="stroke:rgb(0,0,0);stroke-width:2" />
<line x1="110" y1="109.697" x2="100" y2="115.47" style="stroke:rgb(0,0,0);stroke-width:2" />
<line x1="120" y1="127.017" x2="120" y2="115.47" style="stroke:rgb(0,0,0);stroke-width:2" />
<line x1="130" y1="109.697" x2="140" y2="115.47" style="stroke:rgb(0,0,0);stroke-width:2" />
<line x1="150" y1="109.697" x2="160" y2="115.47" style="stroke:rgb(0,0,0);stroke-width:2" />
<line x1="170" y1="109.697" x2="180" y2="115.47" style="stroke:rgb(0,0,0);stroke-width:2" />
<line x1="210" y1="109.697" x2="200" y2="115.47" style="stroke:rgb(0,0,0);stroke-width:2" />
<line x1="220" y1="127.017" x2="220" y2="115.47" style="stroke:rgb(0,0,0);stroke-width:2" />
<line x1="100" y1="127.017" x2="110" y2="132.791" style="stroke:rgb(0,0,0);stroke-width:2" />
<line x1="130" y1="144.338" x2="130" y2="132.791" style="stroke:rgb(0,0,0);stroke-width:2" />
<line x1="140" y1="127.017" x2="150" y2="132.791" style="stroke:rgb(0,0,0);stroke-width:2" />
<line x1="160" y1="127.017" x2="170" y2="132.791" style="stroke:rgb(0,0,0);stroke-width:2" />
<line x1="180" y1="127.017" x2="190" y2="132.791" style="stroke:rgb(0,0,0);stroke-width:2" />
<line x1="200" y1="127.017" x2="210" y2="132.791" style="stroke:rgb(0,0,0);stroke-width:2" />
<line x1="110" y1="144.338" x2="120" y2="150.111" style="stroke:rgb(0,0,0);stroke-width:2" />
<line x1="150" y1="144.338" x2="140" y2="150.111" style="stroke:rgb(0,0,0);stroke-width:2" />
<line x1="170" y1="144.338" x2="160" y2="150.111" style="stroke:rgb(0,0,0);stroke-width:2" />
<line x1="190" y1="144.338" x2="180" y2="150.111" style="stroke:rgb(0,0,0);stroke-width:2" />
<line x1="210" y1="144.338" x2="200" y2="150.111" style="stroke:rgb(0,0,0);stroke-width:2" />
<line x1="110" y1="28.8675" x2="120" y2="23.094" style="stroke:rgb(0,0,0);stroke-width:.1" />
<line x1="110" y1="28.8675" x2="110" y2="40.4145" style="stroke:rgb(0,0,0);stroke-width:.1" />
<circle cx="110" cy="28.8675" r="2" stroke="black" stroke-width=".5" fill="white" />
<circle cx="120" cy="23.094" r="2" stroke="black" stroke-width=".5" fill="black" />
<line x1="130" y1="28.8675" x2="140" y2="23.094" style="stroke:rgb(0,0,0);stroke-width:.1" />
<line x1="130" y1="28.8675" x2="120" y2="23.094" style="stroke:rgb(0,0,0);stroke-width:.1" />
<line x1="130" y1="28.8675" x2="130" y2="40.4145" style="stroke:rgb(0,0,0);stroke-width:.1" />
<circle cx="130" cy="28.8675" r="2" stroke="black" stroke-width=".5" fill="white" />
<circle cx="140" cy="23.094" r="2" stroke="black" stroke-width=".5" fill="black" />
<line x1="150" y1="28.8675" x2="160" y2="23.094" style="stroke:rgb(0,0,0);stroke-width:.1" />
<line x1="150" y1="28.8675" x2="140" y2="23.094" style="stroke:rgb(0,0,0);stroke-width:.1" />
<line x1="150" y1="28.8675" x2="150" y2="40.4145" style="stroke:rgb(0,0,0);stroke-width:.1" />
<circle cx="150" cy="28.8675" r="2" stroke="black" stroke-width=".5" fill="white" />
<circle cx="160" cy="23.094" r="2" stroke="black" stroke-width=".5" fill="black" />
<line x1="170" y1="28.8675" x2="160" y2="23.094" style="stroke:rgb(0,0,0);stroke-width:.1" />
<line x1="170" y1="28.8675" x2="170" y2="40.4145" style="stroke:rgb(0,0,0);stroke-width:.1" />
<circle cx="170" cy="28.8675" r="2" stroke="black" stroke-width=".5" fill="white" />
<line x1="100" y1="46.188" x2="110" y2="40.4145" style="stroke:rgb(0,0,0);stroke-width:.1" />
<line x1="100" y1="46.188" x2="100" y2="57.735" style="stroke:rgb(0,0,0);stroke-width:.1" />
<circle cx="100" cy="46.188" r="2" stroke="black" stroke-width=".5" fill="white" />
<circle cx="110" cy="40.4145" r="2" stroke="black" stroke-width=".5" fill="black" />
<line x1="120" y1="46.188" x2="130" y2="40.4145" style="stroke:rgb(0,0,0);stroke-width:.1" />
<line x1="120" y1="46.188" x2="110" y2="40.4145" style="stroke:rgb(0,0,0);stroke-width:.1" />
<line x1="120" y1="46.188" x2="120" y2="57.735" style="stroke:rgb(0,0,0);stroke-width:.1" />
<circle cx="120" cy="46.188" r="2" stroke="black" stroke-width=".5" fill="white" />
<circle cx="130" cy="40.4145" r="2" stroke="black" stroke-width=".5" fill="black" />
<line x1="140" y1="46.188" x2="150" y2="40.4145" style="stroke:rgb(0,0,0);stroke-width:.1" />
<line x1="140" y1="46.188" x2="130" y2="40.4145" style="stroke:rgb(0,0,0);stroke-width:.1" />
<line x1="140" y1="46.188" x2="140" y2="57.735" style="stroke:rgb(0,0,0);stroke-width:.1" />
<circle cx="140" cy="46.188" r="2" stroke="black" stroke-width=".5" fill="white" />
<circle cx="150" cy="40.4145" r="2" stroke="black" stroke-width=".5" fill="black" />
<line x1="160" y1="46.188" x2="170" y2="40.4145" style="stroke:rgb(0,0,0);stroke-width:.1" />
<line x1="160" y1="46.188" x2="150" y2="40.4145" style="stroke:rgb(0,0,0);stroke-width:.1" />
<line x1="160" y1="46.188" x2="160" y2="57.735" style="stroke:rgb(0,0,0);stroke-width:.1" />
<circle cx="160" cy="46.188" r="2" stroke="black" stroke-width=".5" fill="white" />
<circle cx="170" cy="40.4145" r="2" stroke="black" stroke-width=".5" fill="black" />
<line x1="180" y1="46.188" x2="170" y2="40.4145" style="stroke:rgb(0,0,0);stroke-width:.1" />
<line x1="180" y1="46.188" x2="180" y2="57.735" style="stroke:rgb(0,0,0);stroke-width:.1" />
<circle cx="180" cy="46.188" r="2" stroke="black" stroke-width=".5" fill="white" />
<line x1="90" y1="63.5085" x2="100" y2="57.735" style="stroke:rgb(0,0,0);stroke-width:.1" />
<line x1="90" y1="63.5085" x2="90" y2="75.0555" style="stroke:rgb(0,0,0);stroke-width:.1" />
<circle cx="90" cy="63.5085" r="2" stroke="black" stroke-width=".5" fill="white" />
<circle cx="100" cy="57.735" r="2" stroke="black" stroke-width=".5" fill="black" />
<line x1="110" y1="63.5085" x2="120" y2="57.735" style="stroke:rgb(0,0,0);stroke-width:.1" />
<line x1="110" y1="63.5085" x2="100" y2="57.735" style="stroke:rgb(0,0,0);stroke-width:.1" />
<line x1="110" y1="63.5085" x2="110" y2="75.0555" style="stroke:rgb(0,0,0);stroke-width:.1" />
<circle cx="110" cy="63.5085" r="2" stroke="black" stroke-width=".5" fill="white" />
<circle cx="120" cy="57.735" r="2" stroke="black" stroke-width=".5" fill="black" />
<line x1="130" y1="63.5085" x2="140" y2="57.735" style="stroke:rgb(0,0,0);stroke-width:.1" />
<line x1="130" y1="63.5085" x2="120" y2="57.735" style="stroke:rgb(0,0,0);stroke-width:.1" />
<line x1="130" y1="63.5085" x2="130" y2="75.0555" style="stroke:rgb(0,0,0);stroke-width:.1" />
<circle cx="130" cy="63.5085" r="2" stroke="black" stroke-width=".5" fill="white" />
<circle cx="140" cy="57.735" r="2" stroke="black" stroke-width=".5" fill="black" />
<line x1="150" y1="63.5085" x2="160" y2="57.735" style="stroke:rgb(0,0,0);stroke-width:.1" />
<line x1="150" y1="63.5085" x2="140" y2="57.735" style="stroke:rgb(0,0,0);stroke-width:.1" />
<line x1="150" y1="63.5085" x2="150" y2="75.0555" style="stroke:rgb(0,0,0);stroke-width:.1" />
<circle cx="150" cy="63.5085" r="2" stroke="black" stroke-width=".5" fill="white" />
<circle cx="160" cy="57.735" r="2" stroke="black" stroke-width=".5" fill="black" />
<line x1="170" y1="63.5085" x2="180" y2="57.735" style="stroke:rgb(0,0,0);stroke-width:.1" />
<line x1="170" y1="63.5085" x2="160" y2="57.735" style="stroke:rgb(0,0,0);stroke-width:.1" />
<line x1="170" y1="63.5085" x2="170" y2="75.0555" style="stroke:rgb(0,0,0);stroke-width:.1" />
<circle cx="170" cy="63.5085" r="2" stroke="black" stroke-width=".5" fill="white" />
<circle cx="180" cy="57.735" r="2" stroke="black" stroke-width=".5" fill="black" />
<line x1="190" y1="63.5085" x2="200" y2="57.735" style="stroke:rgb(0,0,0);stroke-width:.1" />
<line x1="190" y1="63.5085" x2="180" y2="57.735" style="stroke:rgb(0,0,0);stroke-width:.1" />
<line x1="190" y1="63.5085" x2="190" y2="75.0555" style="stroke:rgb(0,0,0);stroke-width:.1" />
<circle cx="190" cy="63.5085" r="2" stroke="black" stroke-width=".5" fill="white" />
<circle cx="200" cy="57.735" r="2" stroke="black" stroke-width=".5" fill="black" />
<line x1="210" y1="63.5085" x2="220" y2="57.735" style="stroke:rgb(0,0,0);stroke-width:.1" />
<line x1="210" y1="63.5085" x2="200" y2="57.735" style="stroke:rgb(0,0,0);stroke-width:.1" />
<line x1="210" y1="63.5085" x2="210" y2="75.0555" style="stroke:rgb(0,0,0);stroke-width:.1" />
<circle cx="210" cy="63.5085" r="2" stroke="black" stroke-width=".5" fill="white" />
<circle cx="220" cy="57.735" r="2" stroke="black" stroke-width=".5" fill="black" />
<line x1="230" y1="63.5085" x2="220" y2="57.735" style="stroke:rgb(0,0,0);stroke-width:.1" />
<line x1="230" y1="63.5085" x2="230" y2="75.0555" style="stroke:rgb(0,0,0);stroke-width:.1" />
<circle cx="230" cy="63.5085" r="2" stroke="black" stroke-width=".5" fill="white" />
<line x1="80" y1="80.829" x2="90" y2="75.0555" style="stroke:rgb(0,0,0);stroke-width:.1" />
<line x1="80" y1="80.829" x2="80" y2="92.376" style="stroke:rgb(0,0,0);stroke-width:.1" />
<circle cx="80" cy="80.829" r="2" stroke="black" stroke-width=".5" fill="white" />
<circle cx="90" cy="75.0555" r="2" stroke="black" stroke-width=".5" fill="black" />
<line x1="100" y1="80.829" x2="110" y2="75.0555" style="stroke:rgb(0,0,0);stroke-width:.1" />
<line x1="100" y1="80.829" x2="90" y2="75.0555" style="stroke:rgb(0,0,0);stroke-width:.1" />
<line x1="100" y1="80.829" x2="100" y2="92.376" style="stroke:rgb(0,0,0);stroke-width:.1" />
<circle cx="100" cy="80.829" r="2" stroke="black" stroke-width=".5" fill="white" />
<circle cx="110" cy="75.0555" r="2" stroke="black" stroke-width=".5" fill="black" />
<line x1="120" y1="80.829" x2="130" y2="75.0555" style="stroke:rgb(0,0,0);stroke-width:.1" />
<line x1="120" y1="80.829" x2="110" y2="75.0555" style="stroke:rgb(0,0,0);stroke-width:.1" />
<line x1="120" y1="80.829" x2="120" y2="92.376" style="stroke:rgb(0,0,0);stroke-width:.1" />
<circle cx="120" cy="80.829" r="2" stroke="black" stroke-width=".5" fill="white" />
<circle cx="130" cy="75.0555" r="2" stroke="black" stroke-width=".5" fill="black" />
<line x1="140" y1="80.829" x2="150" y2="75.0555" style="stroke:rgb(0,0,0);stroke-width:.1" />
<line x1="140" y1="80.829" x2="130" y2="75.0555" style="stroke:rgb(0,0,0);stroke-width:.1" />
<line x1="140" y1="80.829" x2="140" y2="92.376" style="stroke:rgb(0,0,0);stroke-width:.1" />
<circle cx="140" cy="80.829" r="2" stroke="black" stroke-width=".5" fill="white" />
<circle cx="150" cy="75.0555" r="2" stroke="black" stroke-width=".5" fill="black" />
<line x1="160" y1="80.829" x2="170" y2="75.0555" style="stroke:rgb(0,0,0);stroke-width:.1" />
<line x1="160" y1="80.829" x2="150" y2="75.0555" style="stroke:rgb(0,0,0);stroke-width:.1" />
<line x1="160" y1="80.829" x2="160" y2="92.376" style="stroke:rgb(0,0,0);stroke-width:.1" />
<circle cx="160" cy="80.829" r="2" stroke="black" stroke-width=".5" fill="white" />
<circle cx="170" cy="75.0555" r="2" stroke="black" stroke-width=".5" fill="black" />
<line x1="180" y1="80.829" x2="190" y2="75.0555" style="stroke:rgb(0,0,0);stroke-width:.1" />
<line x1="180" y1="80.829" x2="170" y2="75.0555" style="stroke:rgb(0,0,0);stroke-width:.1" />
<line x1="180" y1="80.829" x2="180" y2="92.376" style="stroke:rgb(0,0,0);stroke-width:.1" />
<circle cx="180" cy="80.829" r="2" stroke="black" stroke-width=".5" fill="white" />
<circle cx="190" cy="75.0555" r="2" stroke="black" stroke-width=".5" fill="black" />
<line x1="200" y1="80.829" x2="210" y2="75.0555" style="stroke:rgb(0,0,0);stroke-width:.1" />
<line x1="200" y1="80.829" x2="190" y2="75.0555" style="stroke:rgb(0,0,0);stroke-width:.1" />
<line x1="200" y1="80.829" x2="200" y2="92.376" style="stroke:rgb(0,0,0);stroke-width:.1" />
<circle cx="200" cy="80.829" r="2" stroke="black" stroke-width=".5" fill="white" />
<circle cx="210" cy="75.0555" r="2" stroke="black" stroke-width=".5" fill="black" />
<line x1="220" y1="80.829" x2="230" y2="75.0555" style="stroke:rgb(0,0,0);stroke-width:.1" />
<line x1="220" y1="80.829" x2="210" y2="75.0555" style="stroke:rgb(0,0,0);stroke-width:.1" />
<line x1="220" y1="80.829" x2="220" y2="92.376" style="stroke:rgb(0,0,0);stroke-width:.1" />
<circle cx="220" cy="80.829" r="2" stroke="black" stroke-width=".5" fill="white" />
<circle cx="230" cy="75.0555" r="2" stroke="black" stroke-width=".5" fill="black" />
<line x1="240" y1="80.829" x2="230" y2="75.0555" style="stroke:rgb(0,0,0);stroke-width:.1" />
<line x1="240" y1="80.829" x2="240" y2="92.376" style="stroke:rgb(0,0,0);stroke-width:.1" />
<circle cx="240" cy="80.829" r="2" stroke="black" stroke-width=".5" fill="white" />
<circle cx="80" cy="92.376" r="2" stroke="black" stroke-width=".5" fill="black" />
<line x1="90" y1="98.1495" x2="100" y2="92.376" style="stroke:rgb(0,0,0);stroke-width:.1" />
<line x1="90" y1="98.1495" x2="80" y2="92.376" style="stroke:rgb(0,0,0);stroke-width:.1" />
<line x1="90" y1="98.1495" x2="90" y2="109.697" style="stroke:rgb(0,0,0);stroke-width:.1" />
<circle cx="90" cy="98.1495" r="2" stroke="black" stroke-width=".5" fill="white" />
<circle cx="100" cy="92.376" r="2" stroke="black" stroke-width=".5" fill="black" />
<line x1="110" y1="98.1495" x2="120" y2="92.376" style="stroke:rgb(0,0,0);stroke-width:.1" />
<line x1="110" y1="98.1495" x2="100" y2="92.376" style="stroke:rgb(0,0,0);stroke-width:.1" />
<line x1="110" y1="98.1495" x2="110" y2="109.697" style="stroke:rgb(0,0,0);stroke-width:.1" />
<circle cx="110" cy="98.1495" r="2" stroke="black" stroke-width=".5" fill="white" />
<circle cx="120" cy="92.376" r="2" stroke="black" stroke-width=".5" fill="black" />
<line x1="130" y1="98.1495" x2="140" y2="92.376" style="stroke:rgb(0,0,0);stroke-width:.1" />
<line x1="130" y1="98.1495" x2="120" y2="92.376" style="stroke:rgb(0,0,0);stroke-width:.1" />
<line x1="130" y1="98.1495" x2="130" y2="109.697" style="stroke:rgb(0,0,0);stroke-width:.1" />
<circle cx="130" cy="98.1495" r="2" stroke="black" stroke-width=".5" fill="white" />
<circle cx="140" cy="92.376" r="2" stroke="black" stroke-width=".5" fill="black" />
<line x1="150" y1="98.1495" x2="160" y2="92.376" style="stroke:rgb(0,0,0);stroke-width:.1" />
<line x1="150" y1="98.1495" x2="140" y2="92.376" style="stroke:rgb(0,0,0);stroke-width:.1" />
<line x1="150" y1="98.1495" x2="150" y2="109.697" style="stroke:rgb(0,0,0);stroke-width:.1" />
<circle cx="150" cy="98.1495" r="2" stroke="black" stroke-width=".5" fill="white" />
<circle cx="160" cy="92.376" r="2" stroke="black" stroke-width=".5" fill="black" />
<line x1="170" y1="98.1495" x2="180" y2="92.376" style="stroke:rgb(0,0,0);stroke-width:.1" />
<line x1="170" y1="98.1495" x2="160" y2="92.376" style="stroke:rgb(0,0,0);stroke-width:.1" />
<line x1="170" y1="98.1495" x2="170" y2="109.697" style="stroke:rgb(0,0,0);stroke-width:.1" />
<circle cx="170" cy="98.1495" r="2" stroke="black" stroke-width=".5" fill="white" />
<circle cx="180" cy="92.376" r="2" stroke="black" stroke-width=".5" fill="black" />
<line x1="190" y1="98.1495" x2="200" y2="92.376" style="stroke:rgb(0,0,0);stroke-width:.1" />
<line x1="190" y1="98.1495" x2="180" y2="92.376" style="stroke:rgb(0,0,0);stroke-width:.1" />
<line x1="190" y1="98.1495" x2="190" y2="109.697" style="stroke:rgb(0,0,0);stroke-width:.1" />
<circle cx="190" cy="98.1495" r="2" stroke="black" stroke-width=".5" fill="white" />
<circle cx="200" cy="92.376" r="2" stroke="black" stroke-width=".5" fill="black" />
<line x1="210" y1="98.1495" x2="220" y2="92.376" style="stroke:rgb(0,0,0);stroke-width:.1" />
<line x1="210" y1="98.1495" x2="200" y2="92.376" style="stroke:rgb(0,0,0);stroke-width:.1" />
<line x1="210" y1="98.1495" x2="210" y2="109.697" style="stroke:rgb(0,0,0);stroke-width:.1" />
<circle cx="210" cy="98.1495" r="2" stroke="black" stroke-width=".5" fill="white" />
<circle cx="220" cy="92.376" r="2" stroke="black" stroke-width=".5" fill="black" />
<line x1="230" y1="98.1495" x2="240" y2="92.376" style="stroke:rgb(0,0,0);stroke-width:.1" />
<line x1="230" y1="98.1495" x2="220" y2="92.376" style="stroke:rgb(0,0,0);stroke-width:.1" />
<line x1="230" y1="98.1495" x2="230" y2="109.697" style="stroke:rgb(0,0,0);stroke-width:.1" />
<circle cx="230" cy="98.1495" r="2" stroke="black" stroke-width=".5" fill="white" />
<circle cx="240" cy="92.376" r="2" stroke="black" stroke-width=".5" fill="black" />
<circle cx="90" cy="109.697" r="2" stroke="black" stroke-width=".5" fill="black" />
<line x1="100" y1="115.47" x2="110" y2="109.697" style="stroke:rgb(0,0,0);stroke-width:.1" />
<line x1="100" y1="115.47" x2="90" y2="109.697" style="stroke:rgb(0,0,0);stroke-width:.1" />
<line x1="100" y1="115.47" x2="100" y2="127.017" style="stroke:rgb(0,0,0);stroke-width:.1" />
<circle cx="100" cy="115.47" r="2" stroke="black" stroke-width=".5" fill="white" />
<circle cx="110" cy="109.697" r="2" stroke="black" stroke-width=".5" fill="black" />
<line x1="120" y1="115.47" x2="130" y2="109.697" style="stroke:rgb(0,0,0);stroke-width:.1" />
<line x1="120" y1="115.47" x2="110" y2="109.697" style="stroke:rgb(0,0,0);stroke-width:.1" />
<line x1="120" y1="115.47" x2="120" y2="127.017" style="stroke:rgb(0,0,0);stroke-width:.1" />
<circle cx="120" cy="115.47" r="2" stroke="black" stroke-width=".5" fill="white" />
<circle cx="130" cy="109.697" r="2" stroke="black" stroke-width=".5" fill="black" />
<line x1="140" y1="115.47" x2="150" y2="109.697" style="stroke:rgb(0,0,0);stroke-width:.1" />
<line x1="140" y1="115.47" x2="130" y2="109.697" style="stroke:rgb(0,0,0);stroke-width:.1" />
<line x1="140" y1="115.47" x2="140" y2="127.017" style="stroke:rgb(0,0,0);stroke-width:.1" />
<circle cx="140" cy="115.47" r="2" stroke="black" stroke-width=".5" fill="white" />
<circle cx="150" cy="109.697" r="2" stroke="black" stroke-width=".5" fill="black" />
<line x1="160" y1="115.47" x2="170" y2="109.697" style="stroke:rgb(0,0,0);stroke-width:.1" />
<line x1="160" y1="115.47" x2="150" y2="109.697" style="stroke:rgb(0,0,0);stroke-width:.1" />
<line x1="160" y1="115.47" x2="160" y2="127.017" style="stroke:rgb(0,0,0);stroke-width:.1" />
<circle cx="160" cy="115.47" r="2" stroke="black" stroke-width=".5" fill="white" />
<circle cx="170" cy="109.697" r="2" stroke="black" stroke-width=".5" fill="black" />
<line x1="180" y1="115.47" x2="190" y2="109.697" style="stroke:rgb(0,0,0);stroke-width:.1" />
<line x1="180" y1="115.47" x2="170" y2="109.697" style="stroke:rgb(0,0,0);stroke-width:.1" />
<line x1="180" y1="115.47" x2="180" y2="127.017" style="stroke:rgb(0,0,0);stroke-width:.1" />
<circle cx="180" cy="115.47" r="2" stroke="black" stroke-width=".5" fill="white" />
<circle cx="190" cy="109.697" r="2" stroke="black" stroke-width=".5" fill="black" />
<line x1="200" y1="115.47" x2="210" y2="109.697" style="stroke:rgb(0,0,0);stroke-width:.1" />
<line x1="200" y1="115.47" x2="190" y2="109.697" style="stroke:rgb(0,0,0);stroke-width:.1" />
<line x1="200" y1="115.47" x2="200" y2="127.017" style="stroke:rgb(0,0,0);stroke-width:.1" />
<circle cx="200" cy="115.47" r="2" stroke="black" stroke-width=".5" fill="white" />
<circle cx="210" cy="109.697" r="2" stroke="black" stroke-width=".5" fill="black" />
<line x1="220" y1="115.47" x2="230" y2="109.697" style="stroke:rgb(0,0,0);stroke-width:.1" />
<line x1="220" y1="115.47" x2="210" y2="109.697" style="stroke:rgb(0,0,0);stroke-width:.1" />
<line x1="220" y1="115.47" x2="220" y2="127.017" style="stroke:rgb(0,0,0);stroke-width:.1" />
<circle cx="220" cy="115.47" r="2" stroke="black" stroke-width=".5" fill="white" />
<circle cx="230" cy="109.697" r="2" stroke="black" stroke-width=".5" fill="black" />
<circle cx="100" cy="127.017" r="2" stroke="black" stroke-width=".5" fill="black" />
<line x1="110" y1="132.791" x2="120" y2="127.017" style="stroke:rgb(0,0,0);stroke-width:.1" />
<line x1="110" y1="132.791" x2="100" y2="127.017" style="stroke:rgb(0,0,0);stroke-width:.1" />
<line x1="110" y1="132.791" x2="110" y2="144.338" style="stroke:rgb(0,0,0);stroke-width:.1" />
<circle cx="110" cy="132.791" r="2" stroke="black" stroke-width=".5" fill="white" />
<circle cx="120" cy="127.017" r="2" stroke="black" stroke-width=".5" fill="black" />
<line x1="130" y1="132.791" x2="140" y2="127.017" style="stroke:rgb(0,0,0);stroke-width:.1" />
<line x1="130" y1="132.791" x2="120" y2="127.017" style="stroke:rgb(0,0,0);stroke-width:.1" />
<line x1="130" y1="132.791" x2="130" y2="144.338" style="stroke:rgb(0,0,0);stroke-width:.1" />
<circle cx="130" cy="132.791" r="2" stroke="black" stroke-width=".5" fill="white" />
<circle cx="140" cy="127.017" r="2" stroke="black" stroke-width=".5" fill="black" />
<line x1="150" y1="132.791" x2="160" y2="127.017" style="stroke:rgb(0,0,0);stroke-width:.1" />
<line x1="150" y1="132.791" x2="140" y2="127.017" style="stroke:rgb(0,0,0);stroke-width:.1" />
<line x1="150" y1="132.791" x2="150" y2="144.338" style="stroke:rgb(0,0,0);stroke-width:.1" />
<circle cx="150" cy="132.791" r="2" stroke="black" stroke-width=".5" fill="white" />
<circle cx="160" cy="127.017" r="2" stroke="black" stroke-width=".5" fill="black" />
<line x1="170" y1="132.791" x2="180" y2="127.017" style="stroke:rgb(0,0,0);stroke-width:.1" />
<line x1="170" y1="132.791" x2="160" y2="127.017" style="stroke:rgb(0,0,0);stroke-width:.1" />
<line x1="170" y1="132.791" x2="170" y2="144.338" style="stroke:rgb(0,0,0);stroke-width:.1" />
<circle cx="170" cy="132.791" r="2" stroke="black" stroke-width=".5" fill="white" />
<circle cx="180" cy="127.017" r="2" stroke="black" stroke-width=".5" fill="black" />
<line x1="190" y1="132.791" x2="200" y2="127.017" style="stroke:rgb(0,0,0);stroke-width:.1" />
<line x1="190" y1="132.791" x2="180" y2="127.017" style="stroke:rgb(0,0,0);stroke-width:.1" />
<line x1="190" y1="132.791" x2="190" y2="144.338" style="stroke:rgb(0,0,0);stroke-width:.1" />
<circle cx="190" cy="132.791" r="2" stroke="black" stroke-width=".5" fill="white" />
<circle cx="200" cy="127.017" r="2" stroke="black" stroke-width=".5" fill="black" />
<line x1="210" y1="132.791" x2="220" y2="127.017" style="stroke:rgb(0,0,0);stroke-width:.1" />
<line x1="210" y1="132.791" x2="200" y2="127.017" style="stroke:rgb(0,0,0);stroke-width:.1" />
<line x1="210" y1="132.791" x2="210" y2="144.338" style="stroke:rgb(0,0,0);stroke-width:.1" />
<circle cx="210" cy="132.791" r="2" stroke="black" stroke-width=".5" fill="white" />
<circle cx="220" cy="127.017" r="2" stroke="black" stroke-width=".5" fill="black" />
<circle cx="110" cy="144.338" r="2" stroke="black" stroke-width=".5" fill="black" />
<line x1="120" y1="150.111" x2="130" y2="144.338" style="stroke:rgb(0,0,0);stroke-width:.1" />
<line x1="120" y1="150.111" x2="110" y2="144.338" style="stroke:rgb(0,0,0);stroke-width:.1" />
<circle cx="120" cy="150.111" r="2" stroke="black" stroke-width=".5" fill="white" />
<circle cx="130" cy="144.338" r="2" stroke="black" stroke-width=".5" fill="black" />
<line x1="140" y1="150.111" x2="150" y2="144.338" style="stroke:rgb(0,0,0);stroke-width:.1" />
<line x1="140" y1="150.111" x2="130" y2="144.338" style="stroke:rgb(0,0,0);stroke-width:.1" />
<circle cx="140" cy="150.111" r="2" stroke="black" stroke-width=".5" fill="white" />
<circle cx="150" cy="144.338" r="2" stroke="black" stroke-width=".5" fill="black" />
<line x1="160" y1="150.111" x2="170" y2="144.338" style="stroke:rgb(0,0,0);stroke-width:.1" />
<line x1="160" y1="150.111" x2="150" y2="144.338" style="stroke:rgb(0,0,0);stroke-width:.1" />
<circle cx="160" cy="150.111" r="2" stroke="black" stroke-width=".5" fill="white" />
<circle cx="170" cy="144.338" r="2" stroke="black" stroke-width=".5" fill="black" />
<line x1="180" y1="150.111" x2="190" y2="144.338" style="stroke:rgb(0,0,0);stroke-width:.1" />
<line x1="180" y1="150.111" x2="170" y2="144.338" style="stroke:rgb(0,0,0);stroke-width:.1" />
<circle cx="180" cy="150.111" r="2" stroke="black" stroke-width=".5" fill="white" />
<circle cx="190" cy="144.338" r="2" stroke="black" stroke-width=".5" fill="black" />
<line x1="200" y1="150.111" x2="210" y2="144.338" style="stroke:rgb(0,0,0);stroke-width:.1" />
<line x1="200" y1="150.111" x2="190" y2="144.338" style="stroke:rgb(0,0,0);stroke-width:.1" />
<circle cx="200" cy="150.111" r="2" stroke="black" stroke-width=".5" fill="white" />
<circle cx="210" cy="144.338" r="2" stroke="black" stroke-width=".5" fill="black" />
</svg>