<svg xmlns='http://www.w3.org/2000/svg' xmlns:xlink="http://www.w3.org/1999/xlink" height="433.013" width="500" viewBox="0 0 16.5 16.5" preserveAspectRatio="none">
<defs>
<g id="w">  <polygon points = "0,1 .5,0 1,1" fill="paleturquoise"/> </g>
<g id="b">  <polygon points = "0,0 1,0 .5,1" fill="deepskyblue"/> </g>
</defs>
<use xlink:href = "#w" x = "5" y = "1"/>
<use xlink:href = "#b" x = "5.5" y = "1"/>
<use xlink:href = "#w" x = "6" y = "1"/>
<use xlink:href = "#b" x = "6.5" y = "1"/>
<use xlink:href = "#w" x = "7" y = "1"/>
<use xlink:href = "#b" x = "7.5" y = "1"/>
<use xlink:href = "#w" x = "8" y = "1"/>
<use xlink:href = "#w" x = "4.5" y = "2"/>
<use xlink:href = "#b" x = "5" y = "2"/>
<use xlink:href = "#w" x = "5.5" y = "2"/>
<use xlink:href = "#b" x = "6" y = "2"/>
<use xlink:href = "#w" x = "6.5" y = "2"/>
<use xlink:href = "#b" x = "7" y = "2"/>
<use xlink:href = "#w" x = "7.5" y = "2"/>
<use xlink:href = "#b" x = "8" y = "2"/>
<use xlink:href = "#w" x = "8.5" y = "2"/>
<use xlink:href = "#w" x = "4" y = "3"/>
<use xlink:href = "#b" x = "4.5" y = "3"/>
<use xlink:href = "#w" x = "5" y = "3"/>
<use xlink:href = "#b" x = "5.5" y = "3"/>
<use xlink:href = "#w" x = "6" y = "3"/>
<use xlink:href = "#b" x = "6.5" y = "3"/>
<use xlink:href = "#w" x = "7" y = "3"/>
<use xlink:href = "#b" x = "7.5" y = "3"/>
<use xlink:href = "#w" x = "8" y = "3"/>
<use xlink:href = "#b" x = "8.5" y = "3"/>
<use xlink:href = "#w" x = "9" y = "3"/>
<use xlink:href = "#b" x = "9.5" y = "3"/>
<use xlink:href = "#w" x = "10" y = "3"/>
<use xlink:href = "#b" x = "10.5" y = "3"/>
<use xlink:href = "#w" x = "11" y = "3"/>
<use xlink:href = "#w" x = "3.5" y = "4"/>
<use xlink:href = "#b" x = "4" y = "4"/>
<use xlink:href = "#w" x = "4.5" y = "4"/>
<use xlink:href = "#b" x = "5" y = "4"/>
<use xlink:href = "#w" x = "5.5" y = "4"/>
<use xlink:href = "#b" x = "6" y = "4"/>
<use xlink:href = "#w" x = "6.5" y = "4"/>
<use xlink:href = "#b" x = "7" y = "4"/>
<use xlink:href = "#w" x = "7.5" y = "4"/>
<use xlink:href = "#b" x = "8" y = "4"/>
<use xlink:href = "#w" x = "8.5" y = "4"/>
<use xlink:href = "#b" x = "9" y = "4"/>
<use xlink:href = "#w" x = "9.5" y = "4"/>
<use xlink:href = "#b" x = "10" y = "4"/>
<use xlink:href = "#w" x = "10.5" y = "4"/>
<use xlink:href = "#b" x = "11" y = "4"/>
<use xlink:href = "#w" x = "11.5" y = "4"/>
<use xlink:href = "#b" x = "3.5" y = "5"/>
<use xlink:href = "#w" x = "4" y = "5"/>
<use xlink:href = "#b" x = "4.5" y = "5"/>
<use xlink:href = "#w" x = "5" y = "5"/>
<use xlink:href = "#b" x = "5.5" y = "5"/>
<use xlink:href = "#w" x = "6" y = "5"/>
<use xlink:href = "#b" x = "6.5" y = "5"/>
<use xlink:href = "#w" x = "7" y = "5"/>
<use xlink:href = "#b" x = "7.5" y = "5"/>
<use xlink:href = "#w" x = "8" y = "5"/>
<use xlink:href = "#b" x = "8.5" y = "5"/>
<use xlink:href = "#w" x = "9" y = "5"/>
<use xlink:href = "#b" x = "9.5" y = "5"/>
<use xlink:href = "#w" x = "10" y = "5"/>
<use xlink:href = "#b" x = "10.5" y = "5"/>
<use xlink:href = "#w" x = "11" y = "5"/>
<use xlink:href = "#b" x = "11.5" y = "5"/>
<use xlink:href = "#b" x = "4" y = "6"/>
<use xlink:href = "#w" x = "4.5" y = "6"/>
<use xlink:href = "#b" x = "5" y = "6"/>
<use xlink:href = "#w" x = "5.5" y = "6"/>
<use xlink:href = "#b" x = "6" y = "6"/>
<use xlink:href = "#w" x = "6.5" y = "6"/>
<use xlink:href = "#b" x = "7" y = "6"/>
<use xlink:href = "#w" x = "7.5" y = "6"/>
<use xlink:href = "#b" x = "8" y = "6"/>
<use xlink:href = "#w" x = "8.5" y = "6"/>
<use xlink:href = "#b" x = "9" y = "6"/>
<use xlink:href = "#w" x = "9.5" y = "6"/>
<use xlink:href = "#b" x = "10" y = "6"/>
<use xlink:href = "#w" x = "10.5" y = "6"/>
<use xlink:href = "#b" x = "11" y = "6"/>
<use xlink:href = "#b" x = "4.5" y = "7"/>
<use xlink:href = "#w" x = "5" y = "7"/>
<use xlink:href = "#b" x = "5.5" y = "7"/>
<use xlink:href = "#w" x = "6" y = "7"/>
<use xlink:href = "#b" x = "6.5" y = "7"/>
<use xlink:href = "#w" x = "7" y = "7"/>
<use xlink:href = "#b" x = "7.5" y = "7"/>
<use xlink:href = "#w" x = "8" y = "7"/>
<use xlink:href = "#b" x = "8.5" y = "7"/>
<use xlink:href = "#w" x = "9" y = "7"/>
<use xlink:href = "#b" x = "9.5" y = "7"/>
<use xlink:href = "#w" x = "10" y = "7"/>
<use xlink:href = "#b" x = "10.5" y = "7"/>
<use xlink:href = "#b" x = "5" y = "8"/>
<use xlink:href = "#w" x = "5.5" y = "8"/>
<use xlink:href = "#b" x = "6" y = "8"/>
<use xlink:href = "#w" x = "6.5" y = "8"/>
<use xlink:href = "#b" x = "7" y = "8"/>
<use xlink:href = "#w" x = "7.5" y = "8"/>
<use xlink:href = "#b" x = "8" y = "8"/>
<use xlink:href = "#w" x = "8.5" y = "8"/>
<use xlink:href = "#b" x = "9" y = "8"/>
<use xlink:href = "#w" x = "9.5" y = "8"/>
<use xlink:href = "#b" x = "10" y = "8"/>
</svg>