<svg xmlns='http://www.w3.org/2000/svg' xmlns:xlink="http://www.w3.org/1999/xlink" height="433.013" width="500" viewBox="0 0 16.5 16.5" preserveAspectRatio="none">
<defs>
<g id="e1">  <polyline points= "-.5,-.33333333333 0,-.666666666666" stroke="black" stroke-width=".01"/> </g>
<g id="e2">  <polyline points= "0,-.666666666 .5,-.333333333333" stroke="black" stroke-width=".01"/> </g>
<g id="e8">  <polyline points= ".5,-.333333333333 .5,.333333333333" stroke="black" stroke-width=".01"/> </g>
<g id="d1">  <polyline points= "-.5,-.33333333333 0,-.666666666666" stroke="black" stroke-width=".025"/> </g>
<g id="d2">  <polyline points= "0,-.666666666 .5,-.333333333333" stroke="black" stroke-width=".025"/> </g>
<g id="d8">  <polyline points= ".5,-.333333333333 .5,.333333333333" stroke="black" stroke-width=".025"/> </g>
<g id="b">  <ellipse cx=".5" cy=".333333333333" rx=".1" ry=".11547" stroke="black" stroke-width=".02" fill="black"/> </g> 
<g id="w">  <ellipse cx=".5" cy=".666666666666" rx=".1"  ry=".11547" stroke="black" stroke-width=".02" fill="white" /> </g>
</defs>
<use xlink:href="#d8" x="5" y="2"/><use xlink:href="#d2" x="6" y="2"/>
<use xlink:href="#d2" x="7" y="2"/> 
<use xlink:href="#d2" x="8" y="2"/>
<use xlink:href="#d8" x="4.5" y="3"/>
<use xlink:href="#d8" x="5.5" y="3"/>
<use xlink:href="#d2" x="6.5" y="3"/>
<use xlink:href="#d2" x="7.5" y="3"/>
<use xlink:href="#d2" x="8.5" y="3"/>
<use xlink:href="#d8" x="4" y="4"/>
<use xlink:href="#d8" x="5" y="4"/>
<use xlink:href="#d8" x="6" y="4"/>
<use xlink:href="#d2" x="7" y="4"/>
<use xlink:href="#d2" x="8" y="4"/>
<use xlink:href="#d2" x="9" y="4"/>
<use xlink:href="#d2" x="10" y="4"/>
<use xlink:href="#d2" x="11" y="4"/>
<use xlink:href="#d8" x="3.5" y="5"/>
<use xlink:href="#d8" x="4.5" y="5"/>
<use xlink:href="#d8" x="5.5" y="5"/>
<use xlink:href="#d8" x="6.5" y="5"/>
<use xlink:href="#d2" x="7.5" y="5"/>
<use xlink:href="#d2" x="8.5" y="5"/>
<use xlink:href="#d2" x="9.5" y="5"/>
<use xlink:href="#d2" x="10.5" y="5"/>
<use xlink:href="#d2" x="11.5" y="5"/>
<use xlink:href="#d8" x="4" y="6"/>
<use xlink:href="#d8" x="5" y="6"/>
<use xlink:href="#d8" x="6" y="6"/>
<use xlink:href="#d1" x="8" y="6"/>
<use xlink:href="#d1" x="9" y="6"/>
<use xlink:href="#d1" x="10" y="6"/>
<use xlink:href="#d1" x="11" y="6"/>
<use xlink:href="#d1" x="12" y="6"/>
<use xlink:href="#d8" x="4.5" y="7"/>
<use xlink:href="#d8" x="5.5" y="7"/>
<use xlink:href="#d1" x="7.5" y="7"/>
<use xlink:href="#d1" x="8.5" y="7"/>
<use xlink:href="#d1" x="9.5" y="7"/>
<use xlink:href="#d1" x="10.5" y="7"/>
<use xlink:href="#d1" x="11.5" y="7"/>
<use xlink:href="#d8" x="5" y="8"/>
<use xlink:href="#d1" x="7" y="8"/>
<use xlink:href="#d1" x="8" y="8"/>
<use xlink:href="#d1" x="9" y="8"/>
<use xlink:href="#d1" x="10" y="8"/>
<use xlink:href="#d1" x="11" y="8"/>
<use xlink:href="#d1" x="6.5" y="9"/>
<use xlink:href="#d1" x="7.5" y="9"/>
<use xlink:href="#d1" x="8.5" y="9"/>
<use xlink:href="#d1" x="9.5" y="9"/>
<use xlink:href="#d1" x="10.5" y="9"/>
<use xlink:href="#e1" x="6" y="2"/>
<use xlink:href="#e2" x="6" y="2"/>
<use xlink:href="#e8" x="6" y="2"/>
<use xlink:href="#e1" x="7" y="2"/>
<use xlink:href="#e2" x="7" y="2"/>
<use xlink:href="#e8" x="7" y="2"/>
<use xlink:href="#e1" x="8" y="2"/>
<use xlink:href="#e2" x="8" y="2"/>
<use xlink:href="#e8" x="8" y="2"/>
<use xlink:href="#e1" x="5.5" y="3"/>
<use xlink:href="#e2" x="5.5" y="3"/>
<use xlink:href="#e8" x="5.5" y="3"/>
<use xlink:href="#e1" x="6.5" y="3"/>
<use xlink:href="#e2" x="6.5" y="3"/>
<use xlink:href="#e8" x="6.5" y="3"/>
<use xlink:href="#e1" x="7.5" y="3"/>
<use xlink:href="#e2" x="7.5" y="3"/>
<use xlink:href="#e8" x="7.5" y="3"/>
<use xlink:href="#e1" x="8.5" y="3"/>
<use xlink:href="#e2" x="8.5" y="3"/>
<use xlink:href="#e8" x="8.5" y="3"/>
<use xlink:href="#e1" x="5" y="4"/>
<use xlink:href="#e2" x="5" y="4"/>
<use xlink:href="#e8" x="5" y="4"/>
<use xlink:href="#e1" x="6" y="4"/>
<use xlink:href="#e2" x="6" y="4"/>
<use xlink:href="#e8" x="6" y="4"/>
<use xlink:href="#e1" x="7" y="4"/>
<use xlink:href="#e2" x="7" y="4"/>
<use xlink:href="#e8" x="7" y="4"/>
<use xlink:href="#e1" x="8" y="4"/>
<use xlink:href="#e2" x="8" y="4"/>
<use xlink:href="#e8" x="8" y="4"/>
<use xlink:href="#e1" x="9" y="4"/>
<use xlink:href="#e2" x="9" y="4"/>
<use xlink:href="#e8" x="9" y="4"/>
<use xlink:href="#e1" x="10" y="4"/>
<use xlink:href="#e2" x="10" y="4"/>
<use xlink:href="#e8" x="10" y="4"/>
<use xlink:href="#e1" x="11" y="4"/>
<use xlink:href="#e2" x="11" y="4"/>
<use xlink:href="#e8" x="11" y="4"/>
<use xlink:href="#e1" x="4.5" y="5"/>
<use xlink:href="#e2" x="4.5" y="5"/>
<use xlink:href="#e8" x="4.5" y="5"/>
<use xlink:href="#e1" x="5.5" y="5"/>
<use xlink:href="#e2" x="5.5" y="5"/>
<use xlink:href="#e8" x="5.5" y="5"/>
<use xlink:href="#e1" x="6.5" y="5"/>
<use xlink:href="#e2" x="6.5" y="5"/>
<use xlink:href="#e8" x="6.5" y="5"/>
<use xlink:href="#e1" x="7.5" y="5"/>
<use xlink:href="#e2" x="7.5" y="5"/>
<use xlink:href="#e8" x="7.5" y="5"/>
<use xlink:href="#e1" x="8.5" y="5"/>
<use xlink:href="#e2" x="8.5" y="5"/>
<use xlink:href="#e8" x="8.5" y="5"/>
<use xlink:href="#e1" x="9.5" y="5"/>
<use xlink:href="#e2" x="9.5" y="5"/>
<use xlink:href="#e8" x="9.5" y="5"/>
<use xlink:href="#e1" x="10.5" y="5"/>
<use xlink:href="#e2" x="10.5" y="5"/>
<use xlink:href="#e8" x="10.5" y="5"/>
<use xlink:href="#e1" x="11.5" y="5"/>
<use xlink:href="#e2" x="11.5" y="5"/>
<use xlink:href="#e8" x="11.5" y="5"/>
<use xlink:href="#e2" x="4" y="6"/>
<use xlink:href="#e1" x="5" y="6"/>
<use xlink:href="#e2" x="5" y="6"/>
<use xlink:href="#e8" x="5" y="6"/>
<use xlink:href="#e1" x="6" y="6"/>
<use xlink:href="#e2" x="6" y="6"/>
<use xlink:href="#e8" x="6" y="6"/>
<use xlink:href="#e1" x="7" y="6"/>
<use xlink:href="#e2" x="7" y="6"/>
<use xlink:href="#e8" x="7" y="6"/>
<use xlink:href="#e1" x="8" y="6"/>
<use xlink:href="#e2" x="8" y="6"/>
<use xlink:href="#e8" x="8" y="6"/>
<use xlink:href="#e1" x="9" y="6"/>
<use xlink:href="#e2" x="9" y="6"/>
<use xlink:href="#e8" x="9" y="6"/>
<use xlink:href="#e1" x="10" y="6"/>
<use xlink:href="#e2" x="10" y="6"/>
<use xlink:href="#e8" x="10" y="6"/>
<use xlink:href="#e1" x="11" y="6"/>
<use xlink:href="#e2" x="11" y="6"/>
<use xlink:href="#e8" x="11" y="6"/>
<use xlink:href="#e1" x="12" y="6"/>
<use xlink:href="#e2" x="4.5" y="7"/>
<use xlink:href="#e1" x="5.5" y="7"/>
<use xlink:href="#e2" x="5.5" y="7"/>
<use xlink:href="#e8" x="5.5" y="7"/>
<use xlink:href="#e1" x="6.5" y="7"/>
<use xlink:href="#e2" x="6.5" y="7"/>
<use xlink:href="#e8" x="6.5" y="7"/>
<use xlink:href="#e1" x="7.5" y="7"/>
<use xlink:href="#e2" x="7.5" y="7"/>
<use xlink:href="#e8" x="7.5" y="7"/>
<use xlink:href="#e1" x="8.5" y="7"/>
<use xlink:href="#e2" x="8.5" y="7"/>
<use xlink:href="#e8" x="8.5" y="7"/>
<use xlink:href="#e1" x="9.5" y="7"/>
<use xlink:href="#e2" x="9.5" y="7"/>
<use xlink:href="#e8" x="9.5" y="7"/>
<use xlink:href="#e1" x="10.5" y="7"/>
<use xlink:href="#e2" x="10.5" y="7"/>
<use xlink:href="#e8" x="10.5" y="7"/>
<use xlink:href="#e1" x="11.5" y="7"/>
<use xlink:href="#e2" x="5" y="8"/>
<use xlink:href="#e1" x="6" y="8"/>
<use xlink:href="#e2" x="6" y="8"/>
<use xlink:href="#e8" x="6" y="8"/>
<use xlink:href="#e1" x="7" y="8"/>
<use xlink:href="#e2" x="7" y="8"/>
<use xlink:href="#e8" x="7" y="8"/>
<use xlink:href="#e1" x="8" y="8"/>
<use xlink:href="#e2" x="8" y="8"/>
<use xlink:href="#e8" x="8" y="8"/>
<use xlink:href="#e1" x="9" y="8"/>
<use xlink:href="#e2" x="9" y="8"/>
<use xlink:href="#e8" x="9" y="8"/>
<use xlink:href="#e1" x="10" y="8"/>
<use xlink:href="#e2" x="10" y="8"/>
<use xlink:href="#e8" x="10" y="8"/>
<use xlink:href="#e1" x="11" y="8"/>
<use xlink:href="#e2" x="5.5" y="9"/>
<use xlink:href="#e1" x="6.5" y="9"/>
<use xlink:href="#e2" x="6.5" y="9"/>
<use xlink:href="#e1" x="7.5" y="9"/>
<use xlink:href="#e2" x="7.5" y="9"/>
<use xlink:href="#e1" x="8.5" y="9"/>
<use xlink:href="#e2" x="8.5" y="9"/>
<use xlink:href="#e1" x="9.5" y="9"/>
<use xlink:href="#e2" x="9.5" y="9"/>
<use xlink:href="#e1" x="10.5" y="9"/>
<use xlink:href="#w" x="5" y="1"/>
<use xlink:href="#b" x="5.5" y="1"/>
<use xlink:href="#w" x="6" y="1"/>
<use xlink:href="#b" x="6.5" y="1"/>
<use xlink:href="#w" x="7" y="1"/>
<use xlink:href="#b" x="7.5" y="1"/>
<use xlink:href="#w" x="8" y="1"/>
<use xlink:href="#w" x="4.5" y="2"/>
<use xlink:href="#b" x="5" y="2"/>
<use xlink:href="#w" x="5.5" y="2"/>
<use xlink:href="#b" x="6" y="2"/>
<use xlink:href="#w" x="6.5" y="2"/>
<use xlink:href="#b" x="7" y="2"/>
<use xlink:href="#w" x="7.5" y="2"/>
<use xlink:href="#b" x="8" y="2"/>
<use xlink:href="#w" x="8.5" y="2"/>
<use xlink:href="#w" x="4" y="3"/>
<use xlink:href="#b" x="4.5" y="3"/>
<use xlink:href="#w" x="5" y="3"/>
<use xlink:href="#b" x="5.5" y="3"/>
<use xlink:href="#w" x="6" y="3"/>
<use xlink:href="#b" x="6.5" y="3"/>
<use xlink:href="#w" x="7" y="3"/>
<use xlink:href="#b" x="7.5" y="3"/>
<use xlink:href="#w" x="8" y="3"/>
<use xlink:href="#b" x="8.5" y="3"/>
<use xlink:href="#w" x="9" y="3"/>
<use xlink:href="#b" x="9.5" y="3"/>
<use xlink:href="#w" x="10" y="3"/>
<use xlink:href="#b" x="10.5" y="3"/>
<use xlink:href="#w" x="11" y="3"/>
<use xlink:href="#w" x="3.5" y="4"/>
<use xlink:href="#b" x="4" y="4"/>
<use xlink:href="#w" x="4.5" y="4"/>
<use xlink:href="#b" x="5" y="4"/>
<use xlink:href="#w" x="5.5" y="4"/>
<use xlink:href="#b" x="6" y="4"/>
<use xlink:href="#w" x="6.5" y="4"/>
<use xlink:href="#b" x="7" y="4"/>
<use xlink:href="#w" x="7.5" y="4"/>
<use xlink:href="#b" x="8" y="4"/>
<use xlink:href="#w" x="8.5" y="4"/>
<use xlink:href="#b" x="9" y="4"/>
<use xlink:href="#w" x="9.5" y="4"/>
<use xlink:href="#b" x="10" y="4"/>
<use xlink:href="#w" x="10.5" y="4"/>
<use xlink:href="#b" x="11" y="4"/>
<use xlink:href="#w" x="11.5" y="4"/>
<use xlink:href="#b" x="3.5" y="5"/>
<use xlink:href="#w" x="4" y="5"/>
<use xlink:href="#b" x="4.5" y="5"/>
<use xlink:href="#w" x="5" y="5"/>
<use xlink:href="#b" x="5.5" y="5"/>
<use xlink:href="#w" x="6" y="5"/>
<use xlink:href="#b" x="6.5" y="5"/>
<use xlink:href="#w" x="7" y="5"/>
<use xlink:href="#b" x="7.5" y="5"/>
<use xlink:href="#w" x="8" y="5"/>
<use xlink:href="#b" x="8.5" y="5"/>
<use xlink:href="#w" x="9" y="5"/>
<use xlink:href="#b" x="9.5" y="5"/>
<use xlink:href="#w" x="10" y="5"/>
<use xlink:href="#b" x="10.5" y="5"/>
<use xlink:href="#w" x="11" y="5"/>
<use xlink:href="#b" x="11.5" y="5"/>
<use xlink:href="#b" x="4" y="6"/>
<use xlink:href="#w" x="4.5" y="6"/>
<use xlink:href="#b" x="5" y="6"/>
<use xlink:href="#w" x="5.5" y="6"/>
<use xlink:href="#b" x="6" y="6"/>
<use xlink:href="#w" x="6.5" y="6"/>
<use xlink:href="#b" x="7" y="6"/>
<use xlink:href="#w" x="7.5" y="6"/>
<use xlink:href="#b" x="8" y="6"/>
<use xlink:href="#w" x="8.5" y="6"/>
<use xlink:href="#b" x="9" y="6"/>
<use xlink:href="#w" x="9.5" y="6"/>
<use xlink:href="#b" x="10" y="6"/>
<use xlink:href="#w" x="10.5" y="6"/>
<use xlink:href="#b" x="11" y="6"/>
<use xlink:href="#b" x="4.5" y="7"/>
<use xlink:href="#w" x="5" y="7"/>
<use xlink:href="#b" x="5.5" y="7"/>
<use xlink:href="#w" x="6" y="7"/>
<use xlink:href="#b" x="6.5" y="7"/>
<use xlink:href="#w" x="7" y="7"/>
<use xlink:href="#b" x="7.5" y="7"/>
<use xlink:href="#w" x="8" y="7"/>
<use xlink:href="#b" x="8.5" y="7"/>
<use xlink:href="#w" x="9" y="7"/>
<use xlink:href="#b" x="9.5" y="7"/>
<use xlink:href="#w" x="10" y="7"/>
<use xlink:href="#b" x="10.5" y="7"/>
<use xlink:href="#b" x="5" y="8"/>
<use xlink:href="#w" x="5.5" y="8"/>
<use xlink:href="#b" x="6" y="8"/>
<use xlink:href="#w" x="6.5" y="8"/>
<use xlink:href="#b" x="7" y="8"/>
<use xlink:href="#w" x="7.5" y="8"/>
<use xlink:href="#b" x="8" y="8"/>
<use xlink:href="#w" x="8.5" y="8"/>
<use xlink:href="#b" x="9" y="8"/>
<use xlink:href="#w" x="9.5" y="8"/>
<use xlink:href="#b" x="10" y="8"/>
</svg>