<svg xmlns='http://www.w3.org/2000/svg' height="180" width="180">
<line x1="20" y1="0" x2="20" y2="20" style="stroke:rgb(0,0,0);stroke-width:.1" stroke-linecap = "round"   />
<line x1="40" y1="0" x2="40" y2="20" style="stroke:rgb(0,0,0);stroke-width:.1" stroke-linecap = "round"   />
<line x1="60" y1="0" x2="60" y2="20" style="stroke:rgb(0,0,0);stroke-width:.1" stroke-linecap = "round"   />
<line x1="80" y1="0" x2="80" y2="20" style="stroke:rgb(0,0,0);stroke-width:.1" stroke-linecap = "round"   />
<line x1="100" y1="0" x2="100" y2="20" style="stroke:rgb(0,0,0);stroke-width:.1" stroke-linecap = "round"   />
<line x1="120" y1="0" x2="120" y2="20" style="stroke:rgb(0,0,0);stroke-width:.1" stroke-linecap = "round"   />
<line x1="140" y1="0" x2="140" y2="20" style="stroke:rgb(0,0,0);stroke-width:.1" stroke-linecap = "round"   />
<line x1="160" y1="0" x2="160" y2="20" style="stroke:rgb(0,0,0);stroke-width:.1" stroke-linecap = "round"   />
<line x1="0" y1="20" x2="20" y2="20" style="stroke:rgb(0,0,0);stroke-width:.1" stroke-linecap = "round"   />
<line x1="20" y1="20" x2="20" y2="40" style="stroke:rgb(0,0,0);stroke-width:.1" stroke-linecap = "round"   />
<line x1="20" y1="20" x2="40" y2="20" style="stroke:rgb(0,0,0);stroke-width:.1" stroke-linecap = "round"   />
<line x1="40" y1="20" x2="40" y2="40" style="stroke:rgb(0,0,0);stroke-width:2"  stroke-linecap = "round" />
<line x1="40" y1="20" x2="60" y2="20" style="stroke:rgb(0,0,0);stroke-width:.1" stroke-linecap = "round"   />
<line x1="60" y1="20" x2="60" y2="40" style="stroke:rgb(0,0,0);stroke-width:2"  stroke-linecap = "round" />
<line x1="60" y1="20" x2="80" y2="20" style="stroke:rgb(0,0,0);stroke-width:.1" stroke-linecap = "round"   />
<line x1="80" y1="20" x2="80" y2="40" style="stroke:rgb(0,0,0);stroke-width:2"  stroke-linecap = "round" />
<line x1="80" y1="20" x2="100" y2="20" style="stroke:rgb(0,0,0);stroke-width:.1" stroke-linecap = "round"   />
<line x1="100" y1="20" x2="100" y2="40" style="stroke:rgb(0,0,0);stroke-width:2"  stroke-linecap = "round" />
<line x1="100" y1="20" x2="120" y2="20" style="stroke:rgb(0,0,0);stroke-width:.1" stroke-linecap = "round"   />
<line x1="120" y1="20" x2="120" y2="40" style="stroke:rgb(0,0,0);stroke-width:2"  stroke-linecap = "round" />
<line x1="120" y1="20" x2="140" y2="20" style="stroke:rgb(0,0,0);stroke-width:.1" stroke-linecap = "round"   />
<line x1="140" y1="20" x2="140" y2="40" style="stroke:rgb(0,0,0);stroke-width:2"  stroke-linecap = "round" />
<line x1="140" y1="20" x2="160" y2="20" style="stroke:rgb(0,0,0);stroke-width:.1" stroke-linecap = "round"   />
<line x1="160" y1="20" x2="160" y2="40" style="stroke:rgb(0,0,0);stroke-width:.1" stroke-linecap = "round"   />
<line x1="160" y1="20" x2="180" y2="20" style="stroke:rgb(0,0,0);stroke-width:.1" stroke-linecap = "round"   />
<line x1="0" y1="40" x2="20" y2="40" style="stroke:rgb(0,0,0);stroke-width:.1" stroke-linecap = "round"   />
<line x1="20" y1="40" x2="20" y2="60" style="stroke:rgb(0,0,0);stroke-width:.1" stroke-linecap = "round"   />
<line x1="20" y1="40" x2="40" y2="40" style="stroke:rgb(0,0,0);stroke-width:.1" stroke-linecap = "round"   />
<line x1="40" y1="40" x2="40" y2="60" style="stroke:rgb(0,0,0);stroke-width:2"  stroke-linecap = "round" />
<line x1="40" y1="40" x2="60" y2="40" style="stroke:rgb(0,0,0);stroke-width:.1" stroke-linecap = "round"   />
<line x1="60" y1="40" x2="60" y2="60" style="stroke:rgb(0,0,0);stroke-width:2"  stroke-linecap = "round" />
<line x1="60" y1="40" x2="80" y2="40" style="stroke:rgb(0,0,0);stroke-width:.1" stroke-linecap = "round"   />
<line x1="80" y1="40" x2="80" y2="60" style="stroke:rgb(0,0,0);stroke-width:2"  stroke-linecap = "round" />
<line x1="80" y1="40" x2="100" y2="40" style="stroke:rgb(0,0,0);stroke-width:.1" stroke-linecap = "round"   />
<line x1="100" y1="40" x2="100" y2="60" style="stroke:rgb(0,0,0);stroke-width:2"  stroke-linecap = "round" />
<line x1="100" y1="40" x2="120" y2="40" style="stroke:rgb(0,0,0);stroke-width:.1" stroke-linecap = "round"   />
<line x1="120" y1="40" x2="120" y2="60" style="stroke:rgb(0,0,0);stroke-width:.1" stroke-linecap = "round"   />
<line x1="120" y1="40" x2="140" y2="40" style="stroke:rgb(0,0,0);stroke-width:2"  stroke-linecap = "round" />
<line x1="140" y1="40" x2="140" y2="60" style="stroke:rgb(0,0,0);stroke-width:2"  stroke-linecap = "round" />
<line x1="140" y1="40" x2="160" y2="40" style="stroke:rgb(0,0,0);stroke-width:2"  stroke-linecap = "round" />
<line x1="160" y1="40" x2="160" y2="60" style="stroke:rgb(0,0,0);stroke-width:.1" stroke-linecap = "round"   />
<line x1="160" y1="40" x2="180" y2="40" style="stroke:rgb(0,0,0);stroke-width:.1" stroke-linecap = "round"   />
<line x1="0" y1="60" x2="20" y2="60" style="stroke:rgb(0,0,0);stroke-width:.1" stroke-linecap = "round"   />
<line x1="20" y1="60" x2="20" y2="80" style="stroke:rgb(0,0,0);stroke-width:.1" stroke-linecap = "round"   />
<line x1="20" y1="60" x2="40" y2="60" style="stroke:rgb(0,0,0);stroke-width:.1" stroke-linecap = "round"   />
<line x1="40" y1="60" x2="40" y2="80" style="stroke:rgb(0,0,0);stroke-width:.1" stroke-linecap = "round"   />
<line x1="40" y1="60" x2="60" y2="60" style="stroke:rgb(0,0,0);stroke-width:2"  stroke-linecap = "round" />
<line x1="60" y1="60" x2="60" y2="80" style="stroke:rgb(0,0,0);stroke-width:2"  stroke-linecap = "round" />
<line x1="60" y1="60" x2="80" y2="60" style="stroke:rgb(0,0,0);stroke-width:2"  stroke-linecap = "round" />
<line x1="80" y1="60" x2="80" y2="80" style="stroke:rgb(0,0,0);stroke-width:2"  stroke-linecap = "round" />
<line x1="80" y1="60" x2="100" y2="60" style="stroke:rgb(0,0,0);stroke-width:2"  stroke-linecap = "round" />
<line x1="100" y1="60" x2="100" y2="80" style="stroke:rgb(0,0,0);stroke-width:2"  stroke-linecap = "round" />
<line x1="100" y1="60" x2="120" y2="60" style="stroke:rgb(0,0,0);stroke-width:2"  stroke-linecap = "round" />
<line x1="120" y1="60" x2="120" y2="80" style="stroke:rgb(0,0,0);stroke-width:.1" stroke-linecap = "round"   />
<line x1="120" y1="60" x2="140" y2="60" style="stroke:rgb(0,0,0);stroke-width:2"  stroke-linecap = "round" />
<line x1="140" y1="60" x2="140" y2="80" style="stroke:rgb(0,0,0);stroke-width:2"  stroke-linecap = "round" />
<line x1="140" y1="60" x2="160" y2="60" style="stroke:rgb(0,0,0);stroke-width:2"  stroke-linecap = "round" />
<line x1="160" y1="60" x2="160" y2="80" style="stroke:rgb(0,0,0);stroke-width:.1" stroke-linecap = "round"   />
<line x1="160" y1="60" x2="180" y2="60" style="stroke:rgb(0,0,0);stroke-width:.1" stroke-linecap = "round"   />
<line x1="0" y1="80" x2="20" y2="80" style="stroke:rgb(0,0,0);stroke-width:.1" stroke-linecap = "round"   />
<line x1="20" y1="80" x2="20" y2="100" style="stroke:rgb(0,0,0);stroke-width:.1" stroke-linecap = "round"   />
<line x1="20" y1="80" x2="40" y2="80" style="stroke:rgb(0,0,0);stroke-width:.1" stroke-linecap = "round"   />
<line x1="40" y1="80" x2="40" y2="100" style="stroke:rgb(0,0,0);stroke-width:.1" stroke-linecap = "round"   />
<line x1="40" y1="80" x2="60" y2="80" style="stroke:rgb(0,0,0);stroke-width:.1" stroke-linecap = "round"   />
<line x1="60" y1="80" x2="60" y2="100" style="stroke:rgb(0,0,0);stroke-width:2"  stroke-linecap = "round" />
<line x1="60" y1="80" x2="80" y2="80" style="stroke:rgb(0,0,0);stroke-width:.1" stroke-linecap = "round"   />
<line x1="80" y1="80" x2="80" y2="100" style="stroke:rgb(0,0,0);stroke-width:.1" stroke-linecap = "round"   />
<line x1="80" y1="80" x2="100" y2="80" style="stroke:rgb(0,0,0);stroke-width:2"  stroke-linecap = "round" />
<line x1="100" y1="80" x2="100" y2="100" style="stroke:rgb(0,0,0);stroke-width:2"  stroke-linecap = "round" />
<line x1="100" y1="80" x2="120" y2="80" style="stroke:rgb(0,0,0);stroke-width:2"  stroke-linecap = "round" />
<line x1="120" y1="80" x2="120" y2="100" style="stroke:rgb(0,0,0);stroke-width:.1" stroke-linecap = "round"   />
<line x1="120" y1="80" x2="140" y2="80" style="stroke:rgb(0,0,0);stroke-width:2"  stroke-linecap = "round" />
<line x1="140" y1="80" x2="140" y2="100" style="stroke:rgb(0,0,0);stroke-width:2"  stroke-linecap = "round" />
<line x1="140" y1="80" x2="160" y2="80" style="stroke:rgb(0,0,0);stroke-width:2"  stroke-linecap = "round" />
<line x1="160" y1="80" x2="160" y2="100" style="stroke:rgb(0,0,0);stroke-width:.1" stroke-linecap = "round"   />
<line x1="160" y1="80" x2="180" y2="80" style="stroke:rgb(0,0,0);stroke-width:.1" stroke-linecap = "round"   />
<line x1="0" y1="100" x2="20" y2="100" style="stroke:rgb(0,0,0);stroke-width:.1" stroke-linecap = "round"   />
<line x1="20" y1="100" x2="20" y2="120" style="stroke:rgb(0,0,0);stroke-width:.1" stroke-linecap = "round"   />
<line x1="20" y1="100" x2="40" y2="100" style="stroke:rgb(0,0,0);stroke-width:.1" stroke-linecap = "round"   />
<line x1="40" y1="100" x2="40" y2="120" style="stroke:rgb(0,0,0);stroke-width:.1" stroke-linecap = "round"   />
<line x1="40" y1="100" x2="60" y2="100" style="stroke:rgb(0,0,0);stroke-width:.1" stroke-linecap = "round"   />
<line x1="60" y1="100" x2="60" y2="120" style="stroke:rgb(0,0,0);stroke-width:.1" stroke-linecap = "round"   />
<line x1="60" y1="100" x2="80" y2="100" style="stroke:rgb(0,0,0);stroke-width:2"  stroke-linecap = "round" />
<line x1="80" y1="100" x2="80" y2="120" style="stroke:rgb(0,0,0);stroke-width:.1" stroke-linecap = "round"   />
<line x1="80" y1="100" x2="100" y2="100" style="stroke:rgb(0,0,0);stroke-width:2"  stroke-linecap = "round" />
<line x1="100" y1="100" x2="100" y2="120" style="stroke:rgb(0,0,0);stroke-width:2"  stroke-linecap = "round" />
<line x1="100" y1="100" x2="120" y2="100" style="stroke:rgb(0,0,0);stroke-width:2"  stroke-linecap = "round" />
<line x1="120" y1="100" x2="120" y2="120" style="stroke:rgb(0,0,0);stroke-width:.1" stroke-linecap = "round"   />
<line x1="120" y1="100" x2="140" y2="100" style="stroke:rgb(0,0,0);stroke-width:2"  stroke-linecap = "round" />
<line x1="140" y1="100" x2="140" y2="120" style="stroke:rgb(0,0,0);stroke-width:2"  stroke-linecap = "round" />
<line x1="140" y1="100" x2="160" y2="100" style="stroke:rgb(0,0,0);stroke-width:2"  stroke-linecap = "round" />
<line x1="160" y1="100" x2="160" y2="120" style="stroke:rgb(0,0,0);stroke-width:.1" stroke-linecap = "round"   />
<line x1="160" y1="100" x2="180" y2="100" style="stroke:rgb(0,0,0);stroke-width:.1" stroke-linecap = "round"   />
<line x1="0" y1="120" x2="20" y2="120" style="stroke:rgb(0,0,0);stroke-width:.1" stroke-linecap = "round"   />
<line x1="20" y1="120" x2="20" y2="140" style="stroke:rgb(0,0,0);stroke-width:.1" stroke-linecap = "round"   />
<line x1="20" y1="120" x2="40" y2="120" style="stroke:rgb(0,0,0);stroke-width:.1" stroke-linecap = "round"   />
<line x1="40" y1="120" x2="40" y2="140" style="stroke:rgb(0,0,0);stroke-width:.1" stroke-linecap = "round"   />
<line x1="40" y1="120" x2="60" y2="120" style="stroke:rgb(0,0,0);stroke-width:.1" stroke-linecap = "round"   />
<line x1="60" y1="120" x2="60" y2="140" style="stroke:rgb(0,0,0);stroke-width:.1" stroke-linecap = "round"   />
<line x1="60" y1="120" x2="80" y2="120" style="stroke:rgb(0,0,0);stroke-width:.1" stroke-linecap = "round"   />
<line x1="80" y1="120" x2="80" y2="140" style="stroke:rgb(0,0,0);stroke-width:.1" stroke-linecap = "round"   />
<line x1="80" y1="120" x2="100" y2="120" style="stroke:rgb(0,0,0);stroke-width:.1" stroke-linecap = "round"   />
<line x1="100" y1="120" x2="100" y2="140" style="stroke:rgb(0,0,0);stroke-width:.1" stroke-linecap = "round"   />
<line x1="100" y1="120" x2="120" y2="120" style="stroke:rgb(0,0,0);stroke-width:2"  stroke-linecap = "round" />
<line x1="120" y1="120" x2="120" y2="140" style="stroke:rgb(0,0,0);stroke-width:2"  stroke-linecap = "round" />
<line x1="120" y1="120" x2="140" y2="120" style="stroke:rgb(0,0,0);stroke-width:.1" stroke-linecap = "round"   />
<line x1="140" y1="120" x2="140" y2="140" style="stroke:rgb(0,0,0);stroke-width:.1" stroke-linecap = "round"   />
<line x1="140" y1="120" x2="160" y2="120" style="stroke:rgb(0,0,0);stroke-width:2"  stroke-linecap = "round" />
<line x1="160" y1="120" x2="160" y2="140" style="stroke:rgb(0,0,0);stroke-width:.1" stroke-linecap = "round"   />
<line x1="160" y1="120" x2="180" y2="120" style="stroke:rgb(0,0,0);stroke-width:.1" stroke-linecap = "round"   />
<line x1="0" y1="140" x2="20" y2="140" style="stroke:rgb(0,0,0);stroke-width:.1" stroke-linecap = "round"   />
<line x1="20" y1="140" x2="20" y2="160" style="stroke:rgb(0,0,0);stroke-width:.1" stroke-linecap = "round"   />
<line x1="20" y1="140" x2="40" y2="140" style="stroke:rgb(0,0,0);stroke-width:.1" stroke-linecap = "round"   />
<line x1="40" y1="140" x2="40" y2="160" style="stroke:rgb(0,0,0);stroke-width:.1" stroke-linecap = "round"   />
<line x1="40" y1="140" x2="60" y2="140" style="stroke:rgb(0,0,0);stroke-width:.1" stroke-linecap = "round"   />
<line x1="60" y1="140" x2="60" y2="160" style="stroke:rgb(0,0,0);stroke-width:.1" stroke-linecap = "round"   />
<line x1="60" y1="140" x2="80" y2="140" style="stroke:rgb(0,0,0);stroke-width:.1" stroke-linecap = "round"   />
<line x1="80" y1="140" x2="80" y2="160" style="stroke:rgb(0,0,0);stroke-width:.1" stroke-linecap = "round"   />
<line x1="80" y1="140" x2="100" y2="140" style="stroke:rgb(0,0,0);stroke-width:.1" stroke-linecap = "round"   />
<line x1="100" y1="140" x2="100" y2="160" style="stroke:rgb(0,0,0);stroke-width:.1" stroke-linecap = "round"   />
<line x1="100" y1="140" x2="120" y2="140" style="stroke:rgb(0,0,0);stroke-width:.1" stroke-linecap = "round"   />
<line x1="120" y1="140" x2="120" y2="160" style="stroke:rgb(0,0,0);stroke-width:.1" stroke-linecap = "round"   />
<line x1="120" y1="140" x2="140" y2="140" style="stroke:rgb(0,0,0);stroke-width:2"  stroke-linecap = "round" />
<line x1="140" y1="140" x2="140" y2="160" style="stroke:rgb(0,0,0);stroke-width:.1" stroke-linecap = "round"   />
<line x1="140" y1="140" x2="160" y2="140" style="stroke:rgb(0,0,0);stroke-width:2"  stroke-linecap = "round" />
<line x1="160" y1="140" x2="160" y2="160" style="stroke:rgb(0,0,0);stroke-width:.1" stroke-linecap = "round"   />
<line x1="160" y1="140" x2="180" y2="140" style="stroke:rgb(0,0,0);stroke-width:.1" stroke-linecap = "round"   />
<line x1="0" y1="160" x2="20" y2="160" style="stroke:rgb(0,0,0);stroke-width:.1" stroke-linecap = "round"   />
<line x1="20" y1="160" x2="20" y2="180" style="stroke:rgb(0,0,0);stroke-width:.1" stroke-linecap = "round"   />
<line x1="20" y1="160" x2="40" y2="160" style="stroke:rgb(0,0,0);stroke-width:.1" stroke-linecap = "round"   />
<line x1="40" y1="160" x2="40" y2="180" style="stroke:rgb(0,0,0);stroke-width:.1" stroke-linecap = "round"   />
<line x1="40" y1="160" x2="60" y2="160" style="stroke:rgb(0,0,0);stroke-width:.1" stroke-linecap = "round"   />
<line x1="60" y1="160" x2="60" y2="180" style="stroke:rgb(0,0,0);stroke-width:.1" stroke-linecap = "round"   />
<line x1="60" y1="160" x2="80" y2="160" style="stroke:rgb(0,0,0);stroke-width:.1" stroke-linecap = "round"   />
<line x1="80" y1="160" x2="80" y2="180" style="stroke:rgb(0,0,0);stroke-width:.1" stroke-linecap = "round"   />
<line x1="80" y1="160" x2="100" y2="160" style="stroke:rgb(0,0,0);stroke-width:.1" stroke-linecap = "round"   />
<line x1="100" y1="160" x2="100" y2="180" style="stroke:rgb(0,0,0);stroke-width:.1" stroke-linecap = "round"   />
<line x1="100" y1="160" x2="120" y2="160" style="stroke:rgb(0,0,0);stroke-width:.1" stroke-linecap = "round"   />
<line x1="120" y1="160" x2="120" y2="180" style="stroke:rgb(0,0,0);stroke-width:.1" stroke-linecap = "round"   />
<line x1="120" y1="160" x2="140" y2="160" style="stroke:rgb(0,0,0);stroke-width:.1" stroke-linecap = "round"   />
<line x1="140" y1="160" x2="140" y2="180" style="stroke:rgb(0,0,0);stroke-width:.1" stroke-linecap = "round"   />
<line x1="140" y1="160" x2="160" y2="160" style="stroke:rgb(0,0,0);stroke-width:.1" stroke-linecap = "round"   />
<line x1="160" y1="160" x2="160" y2="180" style="stroke:rgb(0,0,0);stroke-width:.1" stroke-linecap = "round"   />
<line x1="160" y1="160" x2="180" y2="160" style="stroke:rgb(0,0,0);stroke-width:.1" stroke-linecap = "round"   />
</svg>