<svg xmlns='http://www.w3.org/2000/svg' height="300" width="300">
<polygon points="120,40 120,20 160,20 160,40" style="fill:deepskyblue;stroke:black;stroke-width:1" />
<polygon points="100,60 100,40 140,40 140,60" style="fill:deepskyblue;stroke:black;stroke-width:1" />
<polygon points="140,60 140,40 180,40 180,60" style="fill:deepskyblue;stroke:black;stroke-width:1" />
<polygon points="80,80 80,60 120,60 120,80" style="fill:deepskyblue;stroke:black;stroke-width:1" />
<polygon points="120,80 120,60 160,60 160,80" style="fill:deepskyblue;stroke:black;stroke-width:1" />
<polygon points="160,80 160,60 200,60 200,80" style="fill:deepskyblue;stroke:black;stroke-width:1" />
<polygon points="60,100 60,80 100,80 100,100" style="fill:deepskyblue;stroke:black;stroke-width:1" />
<polygon points="100,100 100,80 140,80 140,100" style="fill:deepskyblue;stroke:black;stroke-width:1" />
<polygon points="140,100 140,80 180,80 180,100" style="fill:deepskyblue;stroke:black;stroke-width:1" />
<polygon points="180,100 180,80 220,80 220,100" style="fill:deepskyblue;stroke:black;stroke-width:1" />
<polygon points="40,120 40,100 80,100 80,120" style="fill:deepskyblue;stroke:black;stroke-width:1" />
<polygon points="80,120 80,100 120,100 120,120" style="fill:deepskyblue;stroke:black;stroke-width:1" />
<polygon points="120,120 120,100 160,100 160,120" style="fill:deepskyblue;stroke:black;stroke-width:1" />
<polygon points="160,120 160,100 200,100 200,120" style="fill:deepskyblue;stroke:black;stroke-width:1" />
<polygon points="200,120 200,100 240,100 240,120" style="fill:deepskyblue;stroke:black;stroke-width:1" />
<polygon points="20,140 20,120 60,120 60,140" style="fill:deepskyblue;stroke:black;stroke-width:1" />
<polygon points="60,140 60,120 100,120 100,140" style="fill:deepskyblue;stroke:black;stroke-width:1" />
<polygon points="100,140 100,120 140,120 140,140" style="fill:deepskyblue;stroke:black;stroke-width:1" />
<polygon points="140,140 140,120 180,120 180,140" style="fill:deepskyblue;stroke:black;stroke-width:1" />
<polygon points="180,140 180,120 220,120 220,140" style="fill:deepskyblue;stroke:black;stroke-width:1" />
<polygon points="220,140 220,120 260,120 260,140" style="fill:deepskyblue;stroke:black;stroke-width:1" />
<polygon points="40,160 40,140 80,140 80,160" style="fill:deepskyblue;stroke:black;stroke-width:1" />
<polygon points="80,160 80,140 120,140 120,160" style="fill:deepskyblue;stroke:black;stroke-width:1" />
<polygon points="120,160 120,140 160,140 160,160" style="fill:deepskyblue;stroke:black;stroke-width:1" />
<polygon points="160,160 160,140 200,140 200,160" style="fill:deepskyblue;stroke:black;stroke-width:1" />
<polygon points="200,160 200,140 240,140 240,160" style="fill:deepskyblue;stroke:black;stroke-width:1" />
<polygon points="60,180 60,160 100,160 100,180" style="fill:deepskyblue;stroke:black;stroke-width:1" />
<polygon points="100,180 100,160 140,160 140,180" style="fill:deepskyblue;stroke:black;stroke-width:1" />
<polygon points="140,180 140,160 180,160 180,180" style="fill:deepskyblue;stroke:black;stroke-width:1" />
<polygon points="180,180 180,160 220,160 220,180" style="fill:deepskyblue;stroke:black;stroke-width:1" />
<polygon points="80,200 80,180 120,180 120,200" style="fill:deepskyblue;stroke:black;stroke-width:1" />
<polygon points="120,200 120,180 160,180 160,200" style="fill:deepskyblue;stroke:black;stroke-width:1" />
<polygon points="160,200 160,180 200,180 200,200" style="fill:deepskyblue;stroke:black;stroke-width:1" />
<polygon points="100,220 100,200 140,200 140,220" style="fill:deepskyblue;stroke:black;stroke-width:1" />
<polygon points="140,220 140,200 180,200 180,220" style="fill:deepskyblue;stroke:black;stroke-width:1" />
<polygon points="120,240 120,220 160,220 160,240" style="fill:deepskyblue;stroke:black;stroke-width:1" />
</svg>