<svg xmlns='http://www.w3.org/2000/svg' height="280" width="280">
<polygon points="40,20 40,40 60,40 60,20" style="fill:deepskyblue;stroke:black;stroke-width:0" />
<polygon points="60,20 60,40 80,40 80,20" style="fill:paleturquoise;stroke:black;stroke-width:0" />
<polygon points="80,20 80,40 100,40 100,20" style="fill:deepskyblue;stroke:black;stroke-width:0" />
<polygon points="100,20 100,40 120,40 120,20" style="fill:paleturquoise;stroke:black;stroke-width:0" />
<polygon points="120,20 120,40 140,40 140,20" style="fill:deepskyblue;stroke:black;stroke-width:0" />
<polygon points="140,20 140,40 160,40 160,20" style="fill:paleturquoise;stroke:black;stroke-width:0" />
<polygon points="160,20 160,40 180,40 180,20" style="fill:deepskyblue;stroke:black;stroke-width:0" />
<polygon points="180,20 180,40 200,40 200,20" style="fill:paleturquoise;stroke:black;stroke-width:0" />
<polygon points="200,20 200,40 220,40 220,20" style="fill:deepskyblue;stroke:black;stroke-width:0" />
<polygon points="220,20 220,40 240,40 240,20" style="fill:paleturquoise;stroke:black;stroke-width:0" />
<polygon points="40,40 40,60 60,60 60,40" style="fill:paleturquoise;stroke:black;stroke-width:0" />
<polygon points="60,40 60,60 80,60 80,40" style="fill:deepskyblue;stroke:black;stroke-width:0" />
<polygon points="80,40 80,60 100,60 100,40" style="fill:paleturquoise;stroke:black;stroke-width:0" />
<polygon points="100,40 100,60 120,60 120,40" style="fill:deepskyblue;stroke:black;stroke-width:0" />
<polygon points="120,40 120,60 140,60 140,40" style="fill:paleturquoise;stroke:black;stroke-width:0" />
<polygon points="140,40 140,60 160,60 160,40" style="fill:deepskyblue;stroke:black;stroke-width:0" />
<polygon points="160,40 160,60 180,60 180,40" style="fill:paleturquoise;stroke:black;stroke-width:0" />
<polygon points="180,40 180,60 200,60 200,40" style="fill:deepskyblue;stroke:black;stroke-width:0" />
<polygon points="200,40 200,60 220,60 220,40" style="fill:paleturquoise;stroke:black;stroke-width:0" />
<polygon points="220,40 220,60 240,60 240,40" style="fill:deepskyblue;stroke:black;stroke-width:0" />
<polygon points="40,60 40,80 60,80 60,60" style="fill:deepskyblue;stroke:black;stroke-width:0" />
<polygon points="60,60 60,80 80,80 80,60" style="fill:paleturquoise;stroke:black;stroke-width:0" />
<polygon points="80,60 80,80 100,80 100,60" style="fill:deepskyblue;stroke:black;stroke-width:0" />
<polygon points="100,60 100,80 120,80 120,60" style="fill:paleturquoise;stroke:black;stroke-width:0" />
<polygon points="120,60 120,80 140,80 140,60" style="fill:deepskyblue;stroke:black;stroke-width:0" />
<polygon points="140,60 140,80 160,80 160,60" style="fill:paleturquoise;stroke:black;stroke-width:0" />
<polygon points="160,60 160,80 180,80 180,60" style="fill:deepskyblue;stroke:black;stroke-width:0" />
<polygon points="180,60 180,80 200,80 200,60" style="fill:paleturquoise;stroke:black;stroke-width:0" />
<polygon points="200,60 200,80 220,80 220,60" style="fill:deepskyblue;stroke:black;stroke-width:0" />
<polygon points="220,60 220,80 240,80 240,60" style="fill:paleturquoise;stroke:black;stroke-width:0" />
<polygon points="40,80 40,100 60,100 60,80" style="fill:paleturquoise;stroke:black;stroke-width:0" />
<polygon points="60,80 60,100 80,100 80,80" style="fill:deepskyblue;stroke:black;stroke-width:0" />
<polygon points="80,80 80,100 100,100 100,80" style="fill:paleturquoise;stroke:black;stroke-width:0" />
<polygon points="100,80 100,100 120,100 120,80" style="fill:deepskyblue;stroke:black;stroke-width:0" />
<polygon points="120,80 120,100 140,100 140,80" style="fill:paleturquoise;stroke:black;stroke-width:0" />
<polygon points="140,80 140,100 160,100 160,80" style="fill:deepskyblue;stroke:black;stroke-width:0" />
<polygon points="160,80 160,100 180,100 180,80" style="fill:paleturquoise;stroke:black;stroke-width:0" />
<polygon points="180,80 180,100 200,100 200,80" style="fill:deepskyblue;stroke:black;stroke-width:0" />
<polygon points="200,80 200,100 220,100 220,80" style="fill:paleturquoise;stroke:black;stroke-width:0" />
<polygon points="220,80 220,100 240,100 240,80" style="fill:deepskyblue;stroke:black;stroke-width:0" />
<polygon points="40,100 40,120 60,120 60,100" style="fill:deepskyblue;stroke:black;stroke-width:0" />
<polygon points="60,100 60,120 80,120 80,100" style="fill:paleturquoise;stroke:black;stroke-width:0" />
<polygon points="80,100 80,120 100,120 100,100" style="fill:deepskyblue;stroke:black;stroke-width:0" />
<polygon points="100,100 100,120 120,120 120,100" style="fill:paleturquoise;stroke:black;stroke-width:0" />
<polygon points="120,100 120,120 140,120 140,100" style="fill:deepskyblue;stroke:black;stroke-width:0" />
<polygon points="140,100 140,120 160,120 160,100" style="fill:paleturquoise;stroke:black;stroke-width:0" />
<polygon points="160,100 160,120 180,120 180,100" style="fill:deepskyblue;stroke:black;stroke-width:0" />
<polygon points="180,100 180,120 200,120 200,100" style="fill:paleturquoise;stroke:black;stroke-width:0" />
<polygon points="200,100 200,120 220,120 220,100" style="fill:deepskyblue;stroke:black;stroke-width:0" />
<polygon points="220,100 220,120 240,120 240,100" style="fill:paleturquoise;stroke:black;stroke-width:0" />
<polygon points="40,120 40,140 60,140 60,120" style="fill:paleturquoise;stroke:black;stroke-width:0" />
<polygon points="60,120 60,140 80,140 80,120" style="fill:deepskyblue;stroke:black;stroke-width:0" />
<polygon points="80,120 80,140 100,140 100,120" style="fill:paleturquoise;stroke:black;stroke-width:0" />
<polygon points="100,120 100,140 120,140 120,120" style="fill:deepskyblue;stroke:black;stroke-width:0" />
<polygon points="120,120 120,140 140,140 140,120" style="fill:paleturquoise;stroke:black;stroke-width:0" />
<polygon points="140,120 140,140 160,140 160,120" style="fill:deepskyblue;stroke:black;stroke-width:0" />
<polygon points="160,120 160,140 180,140 180,120" style="fill:paleturquoise;stroke:black;stroke-width:0" />
<polygon points="180,120 180,140 200,140 200,120" style="fill:deepskyblue;stroke:black;stroke-width:0" />
<polygon points="200,120 200,140 220,140 220,120" style="fill:paleturquoise;stroke:black;stroke-width:0" />
<polygon points="220,120 220,140 240,140 240,120" style="fill:deepskyblue;stroke:black;stroke-width:0" />
<polygon points="40,140 40,160 60,160 60,140" style="fill:deepskyblue;stroke:black;stroke-width:0" />
<polygon points="60,140 60,160 80,160 80,140" style="fill:paleturquoise;stroke:black;stroke-width:0" />
<polygon points="80,140 80,160 100,160 100,140" style="fill:deepskyblue;stroke:black;stroke-width:0" />
<polygon points="100,140 100,160 120,160 120,140" style="fill:paleturquoise;stroke:black;stroke-width:0" />
<polygon points="120,140 120,160 140,160 140,140" style="fill:deepskyblue;stroke:black;stroke-width:0" />
<polygon points="140,140 140,160 160,160 160,140" style="fill:paleturquoise;stroke:black;stroke-width:0" />
<polygon points="160,140 160,160 180,160 180,140" style="fill:deepskyblue;stroke:black;stroke-width:0" />
<polygon points="180,140 180,160 200,160 200,140" style="fill:paleturquoise;stroke:black;stroke-width:0" />
<polygon points="200,140 200,160 220,160 220,140" style="fill:deepskyblue;stroke:black;stroke-width:0" />
<polygon points="220,140 220,160 240,160 240,140" style="fill:paleturquoise;stroke:black;stroke-width:0" />
<polygon points="40,160 40,180 60,180 60,160" style="fill:paleturquoise;stroke:black;stroke-width:0" />
<polygon points="60,160 60,180 80,180 80,160" style="fill:deepskyblue;stroke:black;stroke-width:0" />
<polygon points="80,160 80,180 100,180 100,160" style="fill:paleturquoise;stroke:black;stroke-width:0" />
<polygon points="100,160 100,180 120,180 120,160" style="fill:deepskyblue;stroke:black;stroke-width:0" />
<polygon points="120,160 120,180 140,180 140,160" style="fill:paleturquoise;stroke:black;stroke-width:0" />
<polygon points="140,160 140,180 160,180 160,160" style="fill:deepskyblue;stroke:black;stroke-width:0" />
<polygon points="160,160 160,180 180,180 180,160" style="fill:paleturquoise;stroke:black;stroke-width:0" />
<polygon points="180,160 180,180 200,180 200,160" style="fill:deepskyblue;stroke:black;stroke-width:0" />
<polygon points="200,160 200,180 220,180 220,160" style="fill:paleturquoise;stroke:black;stroke-width:0" />
<polygon points="220,160 220,180 240,180 240,160" style="fill:deepskyblue;stroke:black;stroke-width:0" />
<polygon points="40,180 40,200 60,200 60,180" style="fill:deepskyblue;stroke:black;stroke-width:0" />
<polygon points="60,180 60,200 80,200 80,180" style="fill:paleturquoise;stroke:black;stroke-width:0" />
<polygon points="80,180 80,200 100,200 100,180" style="fill:deepskyblue;stroke:black;stroke-width:0" />
<polygon points="100,180 100,200 120,200 120,180" style="fill:paleturquoise;stroke:black;stroke-width:0" />
<polygon points="120,180 120,200 140,200 140,180" style="fill:deepskyblue;stroke:black;stroke-width:0" />
<polygon points="140,180 140,200 160,200 160,180" style="fill:paleturquoise;stroke:black;stroke-width:0" />
<polygon points="160,180 160,200 180,200 180,180" style="fill:deepskyblue;stroke:black;stroke-width:0" />
<polygon points="180,180 180,200 200,200 200,180" style="fill:paleturquoise;stroke:black;stroke-width:0" />
<polygon points="200,180 200,200 220,200 220,180" style="fill:deepskyblue;stroke:black;stroke-width:0" />
<polygon points="220,180 220,200 240,200 240,180" style="fill:paleturquoise;stroke:black;stroke-width:0" />
<polygon points="40,200 40,220 60,220 60,200" style="fill:paleturquoise;stroke:black;stroke-width:0" />
<polygon points="60,200 60,220 80,220 80,200" style="fill:deepskyblue;stroke:black;stroke-width:0" />
<polygon points="80,200 80,220 100,220 100,200" style="fill:paleturquoise;stroke:black;stroke-width:0" />
<polygon points="100,200 100,220 120,220 120,200" style="fill:deepskyblue;stroke:black;stroke-width:0" />
<polygon points="120,200 120,220 140,220 140,200" style="fill:paleturquoise;stroke:black;stroke-width:0" />
<polygon points="140,200 140,220 160,220 160,200" style="fill:deepskyblue;stroke:black;stroke-width:0" />
<polygon points="160,200 160,220 180,220 180,200" style="fill:paleturquoise;stroke:black;stroke-width:0" />
<polygon points="180,200 180,220 200,220 200,200" style="fill:deepskyblue;stroke:black;stroke-width:0" />
<polygon points="200,200 200,220 220,220 220,200" style="fill:paleturquoise;stroke:black;stroke-width:0" />
<polygon points="220,200 220,220 240,220 240,200" style="fill:deepskyblue;stroke:black;stroke-width:0" />
<polygon points="40,220 40,240 60,240 60,220" style="fill:deepskyblue;stroke:black;stroke-width:0" />
<polygon points="60,220 60,240 80,240 80,220" style="fill:paleturquoise;stroke:black;stroke-width:0" />
<polygon points="80,220 80,240 100,240 100,220" style="fill:deepskyblue;stroke:black;stroke-width:0" />
<polygon points="100,220 100,240 120,240 120,220" style="fill:paleturquoise;stroke:black;stroke-width:0" />
<polygon points="120,220 120,240 140,240 140,220" style="fill:deepskyblue;stroke:black;stroke-width:0" />
<polygon points="140,220 140,240 160,240 160,220" style="fill:paleturquoise;stroke:black;stroke-width:0" />
<polygon points="160,220 160,240 180,240 180,220" style="fill:deepskyblue;stroke:black;stroke-width:0" />
<polygon points="180,220 180,240 200,240 200,220" style="fill:paleturquoise;stroke:black;stroke-width:0" />
<polygon points="200,220 200,240 220,240 220,220" style="fill:deepskyblue;stroke:black;stroke-width:0" />
<polygon points="220,220 220,240 240,240 240,220" style="fill:paleturquoise;stroke:black;stroke-width:0" />
</svg>