<svg xmlns='http://www.w3.org/2000/svg' height="300" width="300">
<polygon points="40,40 40,20 80,20 80,40" style="fill:deepskyblue;stroke:black;stroke-width:1" />
<polygon points="80,40 80,20 120,20 120,40" style="fill:deepskyblue;stroke:black;stroke-width:1" />
<polygon points="120,40 120,20 160,20 160,40" style="fill:deepskyblue;stroke:black;stroke-width:1" />
<polygon points="160,40 160,20 200,20 200,40" style="fill:deepskyblue;stroke:black;stroke-width:1" />
<polygon points="200,40 200,20 240,20 240,40" style="fill:deepskyblue;stroke:black;stroke-width:1" />
<polygon points="40,40 60,40 60,80 40,80" style="fill:deepskyblue;stroke:black;stroke-width:1" />
<polygon points="60,60 60,40 100,40 100,60" style="fill:deepskyblue;stroke:black;stroke-width:1" />
<polygon points="100,60 100,40 140,40 140,60" style="fill:deepskyblue;stroke:black;stroke-width:1" />
<polygon points="140,60 140,40 180,40 180,60" style="fill:deepskyblue;stroke:black;stroke-width:1" />
<polygon points="180,60 180,40 220,40 220,60" style="fill:deepskyblue;stroke:black;stroke-width:1" />
<polygon points="220,40 240,40 240,80 220,80" style="fill:deepskyblue;stroke:black;stroke-width:1" />
<polygon points="60,60 80,60 80,100 60,100" style="fill:deepskyblue;stroke:black;stroke-width:1" />
<polygon points="80,80 80,60 120,60 120,80" style="fill:deepskyblue;stroke:black;stroke-width:1" />
<polygon points="120,80 120,60 160,60 160,80" style="fill:deepskyblue;stroke:black;stroke-width:1" />
<polygon points="160,80 160,60 200,60 200,80" style="fill:deepskyblue;stroke:black;stroke-width:1" />
<polygon points="200,60 220,60 220,100 200,100" style="fill:deepskyblue;stroke:black;stroke-width:1" />
<polygon points="40,80 60,80 60,120 40,120" style="fill:deepskyblue;stroke:black;stroke-width:1" />
<polygon points="80,80 100,80 100,120 80,120" style="fill:deepskyblue;stroke:black;stroke-width:1" />
<polygon points="100,100 100,80 140,80 140,100" style="fill:deepskyblue;stroke:black;stroke-width:1" />
<polygon points="140,100 140,80 180,80 180,100" style="fill:deepskyblue;stroke:black;stroke-width:1" />
<polygon points="180,80 200,80 200,120 180,120" style="fill:deepskyblue;stroke:black;stroke-width:1" />
<polygon points="220,80 240,80 240,120 220,120" style="fill:deepskyblue;stroke:black;stroke-width:1" />
<polygon points="60,100 80,100 80,140 60,140" style="fill:deepskyblue;stroke:black;stroke-width:1" />
<polygon points="100,100 120,100 120,140 100,140" style="fill:deepskyblue;stroke:black;stroke-width:1" />
<polygon points="120,120 120,100 160,100 160,120" style="fill:deepskyblue;stroke:black;stroke-width:1" />
<polygon points="160,100 180,100 180,140 160,140" style="fill:deepskyblue;stroke:black;stroke-width:1" />
<polygon points="200,100 220,100 220,140 200,140" style="fill:deepskyblue;stroke:black;stroke-width:1" />
<polygon points="40,120 60,120 60,160 40,160" style="fill:deepskyblue;stroke:black;stroke-width:1" />
<polygon points="80,120 100,120 100,160 80,160" style="fill:deepskyblue;stroke:black;stroke-width:1" />
<polygon points="120,120 140,120 140,160 120,160" style="fill:deepskyblue;stroke:black;stroke-width:1" />
<polygon points="140,120 160,120 160,160 140,160" style="fill:deepskyblue;stroke:black;stroke-width:1" />
<polygon points="180,120 200,120 200,160 180,160" style="fill:deepskyblue;stroke:black;stroke-width:1" />
<polygon points="220,120 240,120 240,160 220,160" style="fill:deepskyblue;stroke:black;stroke-width:1" />
<polygon points="60,140 80,140 80,180 60,180" style="fill:deepskyblue;stroke:black;stroke-width:1" />
<polygon points="100,140 120,140 120,180 100,180" style="fill:deepskyblue;stroke:black;stroke-width:1" />
<polygon points="160,140 180,140 180,180 160,180" style="fill:deepskyblue;stroke:black;stroke-width:1" />
<polygon points="200,140 220,140 220,180 200,180" style="fill:deepskyblue;stroke:black;stroke-width:1" />
<polygon points="40,160 60,160 60,200 40,200" style="fill:deepskyblue;stroke:black;stroke-width:1" />
<polygon points="80,160 100,160 100,200 80,200" style="fill:deepskyblue;stroke:black;stroke-width:1" />
<polygon points="120,180 120,160 160,160 160,180" style="fill:deepskyblue;stroke:black;stroke-width:1" />
<polygon points="180,160 200,160 200,200 180,200" style="fill:deepskyblue;stroke:black;stroke-width:1" />
<polygon points="220,160 240,160 240,200 220,200" style="fill:deepskyblue;stroke:black;stroke-width:1" />
<polygon points="60,180 80,180 80,220 60,220" style="fill:deepskyblue;stroke:black;stroke-width:1" />
<polygon points="100,200 100,180 140,180 140,200" style="fill:deepskyblue;stroke:black;stroke-width:1" />
<polygon points="140,200 140,180 180,180 180,200" style="fill:deepskyblue;stroke:black;stroke-width:1" />
<polygon points="200,180 220,180 220,220 200,220" style="fill:deepskyblue;stroke:black;stroke-width:1" />
<polygon points="40,200 60,200 60,240 40,240" style="fill:deepskyblue;stroke:black;stroke-width:1" />
<polygon points="80,220 80,200 120,200 120,220" style="fill:deepskyblue;stroke:black;stroke-width:1" />
<polygon points="120,220 120,200 160,200 160,220" style="fill:deepskyblue;stroke:black;stroke-width:1" />
<polygon points="160,220 160,200 200,200 200,220" style="fill:deepskyblue;stroke:black;stroke-width:1" />
<polygon points="220,200 240,200 240,240 220,240" style="fill:deepskyblue;stroke:black;stroke-width:1" />
<polygon points="60,240 60,220 100,220 100,240" style="fill:deepskyblue;stroke:black;stroke-width:1" />
<polygon points="100,240 100,220 140,220 140,240" style="fill:deepskyblue;stroke:black;stroke-width:1" />
<polygon points="140,240 140,220 180,220 180,240" style="fill:deepskyblue;stroke:black;stroke-width:1" />
<polygon points="180,240 180,220 220,220 220,240" style="fill:deepskyblue;stroke:black;stroke-width:1" />
</svg>