<svg xmlns='http://www.w3.org/2000/svg' height="200" width="200">
<polygon points="60,40 60,60 80,60 80,40" style="fill:deepskyblue;stroke:black;stroke-width:0" />
<polygon points="100,40 100,60 120,60 120,40" style="fill:deepskyblue;stroke:black;stroke-width:0" />
<polygon points="60,60 60,80 80,80 80,60" style="fill:paleturquoise;stroke:black;stroke-width:0" />
<polygon points="100,60 100,80 120,80 120,60" style="fill:paleturquoise;stroke:black;stroke-width:0" />
<polygon points="60,80 60,100 80,100 80,80" style="fill:deepskyblue;stroke:black;stroke-width:0" />
<polygon points="100,80 100,100 120,100 120,80" style="fill:deepskyblue;stroke:black;stroke-width:0" />
<polygon points="60,100 60,120 80,120 80,100" style="fill:paleturquoise;stroke:black;stroke-width:0" />
<polygon points="80,100 80,120 100,120 100,100" style="fill:deepskyblue;stroke:black;stroke-width:0" />
<polygon points="100,100 100,120 120,120 120,100" style="fill:paleturquoise;stroke:black;stroke-width:0" />
<polygon points="80,120 80,140 100,140 100,120" style="fill:paleturquoise;stroke:black;stroke-width:0" />
</svg>