<svg xmlns='http://www.w3.org/2000/svg' height="300" width="300">
<polygon points="140,40 140,20 180,20 180,40" style="fill:deepskyblue;stroke:black;stroke-width:1" />
<polygon points="100,60 100,40 140,40 140,60" style="fill:deepskyblue;stroke:black;stroke-width:1" />
<polygon points="140,40 160,40 160,80 140,80" style="fill:deepskyblue;stroke:black;stroke-width:1" />
<polygon points="160,40 180,40 180,80 160,80" style="fill:deepskyblue;stroke:black;stroke-width:1" />
<polygon points="180,60 180,40 220,40 220,60" style="fill:deepskyblue;stroke:black;stroke-width:1" />
<polygon points="80,80 80,60 120,60 120,80" style="fill:deepskyblue;stroke:black;stroke-width:1" />
<polygon points="120,60 140,60 140,100 120,100" style="fill:deepskyblue;stroke:black;stroke-width:1" />
<polygon points="180,60 200,60 200,100 180,100" style="fill:deepskyblue;stroke:black;stroke-width:1" />
<polygon points="200,80 200,60 240,60 240,80" style="fill:deepskyblue;stroke:black;stroke-width:1" />
<polygon points="20,100 20,80 60,80 60,100" style="fill:deepskyblue;stroke:black;stroke-width:1" />
<polygon points="60,100 60,80 100,80 100,100" style="fill:deepskyblue;stroke:black;stroke-width:1" />
<polygon points="100,80 120,80 120,120 100,120" style="fill:deepskyblue;stroke:black;stroke-width:1" />
<polygon points="140,100 140,80 180,80 180,100" style="fill:deepskyblue;stroke:black;stroke-width:1" />
<polygon points="200,80 220,80 220,120 200,120" style="fill:deepskyblue;stroke:black;stroke-width:1" />
<polygon points="220,100 220,80 260,80 260,100" style="fill:deepskyblue;stroke:black;stroke-width:1" />
</svg>