<svg xmlns='http://www.w3.org/2000/svg' height="280" width="280">
<polygon points="140,20 140,40 160,40 160,20" style="fill:paleturquoise;stroke:black;stroke-width:0" />
<polygon points="160,20 160,40 180,40 180,20" style="fill:deepskyblue;stroke:black;stroke-width:0" />
<polygon points="100,40 100,60 120,60 120,40" style="fill:deepskyblue;stroke:black;stroke-width:0" />
<polygon points="120,40 120,60 140,60 140,40" style="fill:paleturquoise;stroke:black;stroke-width:0" />
<polygon points="140,40 140,60 160,60 160,40" style="fill:deepskyblue;stroke:black;stroke-width:0" />
<polygon points="160,40 160,60 180,60 180,40" style="fill:paleturquoise;stroke:black;stroke-width:0" />
<polygon points="180,40 180,60 200,60 200,40" style="fill:deepskyblue;stroke:black;stroke-width:0" />
<polygon points="200,40 200,60 220,60 220,40" style="fill:paleturquoise;stroke:black;stroke-width:0" />
<polygon points="80,60 80,80 100,80 100,60" style="fill:deepskyblue;stroke:black;stroke-width:0" />
<polygon points="100,60 100,80 120,80 120,60" style="fill:paleturquoise;stroke:black;stroke-width:0" />
<polygon points="120,60 120,80 140,80 140,60" style="fill:deepskyblue;stroke:black;stroke-width:0" />
<polygon points="140,60 140,80 160,80 160,60" style="fill:paleturquoise;stroke:black;stroke-width:0" />
<polygon points="160,60 160,80 180,80 180,60" style="fill:deepskyblue;stroke:black;stroke-width:0" />
<polygon points="180,60 180,80 200,80 200,60" style="fill:paleturquoise;stroke:black;stroke-width:0" />
<polygon points="200,60 200,80 220,80 220,60" style="fill:deepskyblue;stroke:black;stroke-width:0" />
<polygon points="220,60 220,80 240,80 240,60" style="fill:paleturquoise;stroke:black;stroke-width:0" />
<polygon points="20,80 20,100 40,100 40,80" style="fill:deepskyblue;stroke:black;stroke-width:0" />
<polygon points="40,80 40,100 60,100 60,80" style="fill:paleturquoise;stroke:black;stroke-width:0" />
<polygon points="60,80 60,100 80,100 80,80" style="fill:deepskyblue;stroke:black;stroke-width:0" />
<polygon points="80,80 80,100 100,100 100,80" style="fill:paleturquoise;stroke:black;stroke-width:0" />
<polygon points="100,80 100,100 120,100 120,80" style="fill:deepskyblue;stroke:black;stroke-width:0" />
<polygon points="120,80 120,100 140,100 140,80" style="fill:paleturquoise;stroke:black;stroke-width:0" />
<polygon points="140,80 140,100 160,100 160,80" style="fill:deepskyblue;stroke:black;stroke-width:0" />
<polygon points="160,80 160,100 180,100 180,80" style="fill:paleturquoise;stroke:black;stroke-width:0" />
<polygon points="180,80 180,100 200,100 200,80" style="fill:deepskyblue;stroke:black;stroke-width:0" />
<polygon points="200,80 200,100 220,100 220,80" style="fill:paleturquoise;stroke:black;stroke-width:0" />
<polygon points="220,80 220,100 240,100 240,80" style="fill:deepskyblue;stroke:black;stroke-width:0" />
<polygon points="240,80 240,100 260,100 260,80" style="fill:paleturquoise;stroke:black;stroke-width:0" />
<polygon points="100,100 100,120 120,120 120,100" style="fill:paleturquoise;stroke:black;stroke-width:0" />
<polygon points="200,100 200,120 220,120 220,100" style="fill:deepskyblue;stroke:black;stroke-width:0" />
</svg>