<svg xmlns='http://www.w3.org/2000/svg' xmlns:xlink="http://www.w3.org/1999/xlink" height="500" width="500" viewBox="0 0 15 15">
<defs>
<g id="h1">  <polygon points = "-1,0 -1,-1 1,-1 1,0" fill="white" stroke="black" stroke-width=".05"/> </g>
<g id="v1">  <polygon points = "-1,-1 0,-1 0,1 -1,1" fill="white" stroke="black" stroke-width=".05"/> </g>
<g id="h2">  <polygon points = "-1,0 -1,-1 1,-1 1,0" fill="white" stroke="black" stroke-width=".05"/> </g>
<g id="v2">  <polygon points = "-1,-1 0,-1 0,1 -1,1" fill="white" stroke="black" stroke-width=".05"/> </g>
</defs>
<use xlink:href = "#h2" x = "7" y = "3"/>
<use xlink:href = "#h2" x = "6" y = "4"/>
<use xlink:href = "#v2" x = "8" y = "4"/>
<use xlink:href = "#v1" x = "9" y = "4"/>
<use xlink:href = "#h2" x = "5" y = "5"/>
<use xlink:href = "#v2" x = "7" y = "5"/>
<use xlink:href = "#v1" x = "10" y = "5"/>
<use xlink:href = "#v2" x = "4" y = "6"/>
<use xlink:href = "#h1" x = "5" y = "6"/>
<use xlink:href = "#h2" x = "8" y = "6"/>
<use xlink:href = "#v1" x = "11" y = "6"/>
<use xlink:href = "#v2" x = "3" y = "7"/>
<use xlink:href = "#v2" x = "5" y = "7"/>
<use xlink:href = "#h1" x = "6" y = "7"/>
<use xlink:href = "#h1" x = "8" y = "7"/>
<use xlink:href = "#v1" x = "10" y = "7"/>
<use xlink:href = "#v1" x = "12" y = "7"/>
<use xlink:href = "#v2" x = "4" y = "8"/>
<use xlink:href = "#v2" x = "6" y = "8"/>
<use xlink:href = "#v1" x = "7" y = "8"/>
<use xlink:href = "#h2" x = "8" y = "8"/>
<use xlink:href = "#v1" x = "11" y = "8"/>
<use xlink:href = "#v2" x = "5" y = "9"/>
<use xlink:href = "#h1" x = "8" y = "9"/>
<use xlink:href = "#v1" x = "10" y = "9"/>
<use xlink:href = "#v2" x = "6" y = "10"/>
<use xlink:href = "#h1" x = "7" y = "10"/>
<use xlink:href = "#v1" x = "9" y = "10"/>
<use xlink:href = "#h2" x = "7" y = "11"/>
<use xlink:href = "#h1" x = "7" y = "12"/>
</svg>