<svg xmlns='http://www.w3.org/2000/svg' height="240" width="240">
<line x1="50" y1="50" x2="70" y2="50" style="stroke:rgb(0,0,0);stroke-width:2" />
<line x1="90" y1="50" x2="110" y2="50" style="stroke:rgb(0,0,0);stroke-width:2" />
<line x1="130" y1="50" x2="150" y2="50" style="stroke:rgb(0,0,0);stroke-width:2" />
<line x1="130" y1="50" x2="130" y2="70" style="stroke:rgb(0,0,0);stroke-width:2" />
<line x1="150" y1="50" x2="150" y2="70" style="stroke:rgb(0,0,0);stroke-width:2" />
<line x1="50" y1="70" x2="50" y2="90" style="stroke:rgb(0,0,0);stroke-width:2" />
<line x1="70" y1="70" x2="90" y2="70" style="stroke:rgb(0,0,0);stroke-width:2" />
<line x1="70" y1="70" x2="70" y2="90" style="stroke:rgb(0,0,0);stroke-width:2" />
<line x1="90" y1="70" x2="90" y2="90" style="stroke:rgb(0,0,0);stroke-width:2" />
<line x1="110" y1="70" x2="110" y2="90" style="stroke:rgb(0,0,0);stroke-width:2" />
<line x1="130" y1="70" x2="130" y2="90" style="stroke:rgb(0,0,0);stroke-width:2" />
<line x1="150" y1="70" x2="150" y2="90" style="stroke:rgb(0,0,0);stroke-width:2" />
<line x1="70" y1="90" x2="90" y2="90" style="stroke:rgb(0,0,0);stroke-width:2" />
<line x1="130" y1="90" x2="130" y2="110" style="stroke:rgb(0,0,0);stroke-width:2" />
<line x1="150" y1="90" x2="150" y2="110" style="stroke:rgb(0,0,0);stroke-width:2" />
<line x1="50" y1="110" x2="70" y2="110" style="stroke:rgb(0,0,0);stroke-width:2" />
<line x1="50" y1="110" x2="50" y2="130" style="stroke:rgb(0,0,0);stroke-width:2" />
<line x1="70" y1="110" x2="70" y2="130" style="stroke:rgb(0,0,0);stroke-width:2" />
<line x1="90" y1="110" x2="110" y2="110" style="stroke:rgb(0,0,0);stroke-width:2" />
<line x1="130" y1="110" x2="130" y2="130" style="stroke:rgb(0,0,0);stroke-width:2" />
<line x1="150" y1="110" x2="150" y2="130" style="stroke:rgb(0,0,0);stroke-width:2" />
<line x1="50" y1="130" x2="50" y2="150" style="stroke:rgb(0,0,0);stroke-width:2" />
<line x1="70" y1="130" x2="70" y2="150" style="stroke:rgb(0,0,0);stroke-width:2" />
<line x1="90" y1="130" x2="110" y2="130" style="stroke:rgb(0,0,0);stroke-width:2" />
<line x1="130" y1="130" x2="130" y2="150" style="stroke:rgb(0,0,0);stroke-width:2" />
<line x1="150" y1="130" x2="150" y2="150" style="stroke:rgb(0,0,0);stroke-width:2" />
<line x1="50" y1="150" x2="70" y2="150" style="stroke:rgb(0,0,0);stroke-width:2" />
<line x1="90" y1="150" x2="110" y2="150" style="stroke:rgb(0,0,0);stroke-width:2" />
<line x1="130" y1="150" x2="150" y2="150" style="stroke:rgb(0,0,0);stroke-width:2" />
<circle cx="50" cy="50" r="2" stroke="black" stroke-width=".5" fill="black" />
<line x1="70" y1="50" x2="90" y2="50" style="stroke:rgb(0,0,0);stroke-width:.1" />
<line x1="70" y1="50" x2="50" y2="50" style="stroke:rgb(0,0,0);stroke-width:.1" />
<line x1="70" y1="50" x2="70" y2="70" style="stroke:rgb(0,0,0);stroke-width:.1" />
<circle cx="70" cy="50" r="2" stroke="black" stroke-width=".5" fill="white" />
<circle cx="90" cy="50" r="2" stroke="black" stroke-width=".5" fill="black" />
<line x1="110" y1="50" x2="130" y2="50" style="stroke:rgb(0,0,0);stroke-width:.1" />
<line x1="110" y1="50" x2="90" y2="50" style="stroke:rgb(0,0,0);stroke-width:.1" />
<line x1="110" y1="50" x2="110" y2="70" style="stroke:rgb(0,0,0);stroke-width:.1" />
<circle cx="110" cy="50" r="2" stroke="black" stroke-width=".5" fill="white" />
<circle cx="130" cy="50" r="2" stroke="black" stroke-width=".5" fill="black" />
<line x1="150" y1="50" x2="130" y2="50" style="stroke:rgb(0,0,0);stroke-width:.1" />
<line x1="150" y1="50" x2="150" y2="70" style="stroke:rgb(0,0,0);stroke-width:.1" />
<circle cx="150" cy="50" r="2" stroke="black" stroke-width=".5" fill="white" />
<line x1="50" y1="70" x2="70" y2="70" style="stroke:rgb(0,0,0);stroke-width:.1" />
<line x1="50" y1="70" x2="50" y2="50" style="stroke:rgb(0,0,0);stroke-width:.1" />
<line x1="50" y1="70" x2="50" y2="90" style="stroke:rgb(0,0,0);stroke-width:.1" />
<circle cx="50" cy="70" r="2" stroke="black" stroke-width=".5" fill="white" />
<circle cx="70" cy="70" r="2" stroke="black" stroke-width=".5" fill="black" />
<line x1="90" y1="70" x2="110" y2="70" style="stroke:rgb(0,0,0);stroke-width:.1" />
<line x1="90" y1="70" x2="70" y2="70" style="stroke:rgb(0,0,0);stroke-width:.1" />
<line x1="90" y1="70" x2="90" y2="50" style="stroke:rgb(0,0,0);stroke-width:.1" />
<line x1="90" y1="70" x2="90" y2="90" style="stroke:rgb(0,0,0);stroke-width:.1" />
<circle cx="90" cy="70" r="2" stroke="black" stroke-width=".5" fill="white" />
<circle cx="110" cy="70" r="2" stroke="black" stroke-width=".5" fill="black" />
<line x1="130" y1="70" x2="150" y2="70" style="stroke:rgb(0,0,0);stroke-width:.1" />
<line x1="130" y1="70" x2="110" y2="70" style="stroke:rgb(0,0,0);stroke-width:.1" />
<line x1="130" y1="70" x2="130" y2="50" style="stroke:rgb(0,0,0);stroke-width:.1" />
<line x1="130" y1="70" x2="130" y2="90" style="stroke:rgb(0,0,0);stroke-width:.1" />
<circle cx="130" cy="70" r="2" stroke="black" stroke-width=".5" fill="white" />
<circle cx="150" cy="70" r="2" stroke="black" stroke-width=".5" fill="black" />
<circle cx="50" cy="90" r="2" stroke="black" stroke-width=".5" fill="black" />
<line x1="70" y1="90" x2="90" y2="90" style="stroke:rgb(0,0,0);stroke-width:.1" />
<line x1="70" y1="90" x2="50" y2="90" style="stroke:rgb(0,0,0);stroke-width:.1" />
<line x1="70" y1="90" x2="70" y2="70" style="stroke:rgb(0,0,0);stroke-width:.1" />
<line x1="70" y1="90" x2="70" y2="110" style="stroke:rgb(0,0,0);stroke-width:.1" />
<circle cx="70" cy="90" r="2" stroke="black" stroke-width=".5" fill="white" />
<circle cx="90" cy="90" r="2" stroke="black" stroke-width=".5" fill="black" />
<line x1="110" y1="90" x2="130" y2="90" style="stroke:rgb(0,0,0);stroke-width:.1" />
<line x1="110" y1="90" x2="90" y2="90" style="stroke:rgb(0,0,0);stroke-width:.1" />
<line x1="110" y1="90" x2="110" y2="70" style="stroke:rgb(0,0,0);stroke-width:.1" />
<line x1="110" y1="90" x2="110" y2="110" style="stroke:rgb(0,0,0);stroke-width:.1" />
<circle cx="110" cy="90" r="2" stroke="black" stroke-width=".5" fill="white" />
<circle cx="130" cy="90" r="2" stroke="black" stroke-width=".5" fill="black" />
<line x1="150" y1="90" x2="130" y2="90" style="stroke:rgb(0,0,0);stroke-width:.1" />
<line x1="150" y1="90" x2="150" y2="70" style="stroke:rgb(0,0,0);stroke-width:.1" />
<line x1="150" y1="90" x2="150" y2="110" style="stroke:rgb(0,0,0);stroke-width:.1" />
<circle cx="150" cy="90" r="2" stroke="black" stroke-width=".5" fill="white" />
<line x1="50" y1="110" x2="70" y2="110" style="stroke:rgb(0,0,0);stroke-width:.1" />
<line x1="50" y1="110" x2="50" y2="90" style="stroke:rgb(0,0,0);stroke-width:.1" />
<line x1="50" y1="110" x2="50" y2="130" style="stroke:rgb(0,0,0);stroke-width:.1" />
<circle cx="50" cy="110" r="2" stroke="black" stroke-width=".5" fill="white" />
<circle cx="70" cy="110" r="2" stroke="black" stroke-width=".5" fill="black" />
<line x1="90" y1="110" x2="110" y2="110" style="stroke:rgb(0,0,0);stroke-width:.1" />
<line x1="90" y1="110" x2="70" y2="110" style="stroke:rgb(0,0,0);stroke-width:.1" />
<line x1="90" y1="110" x2="90" y2="90" style="stroke:rgb(0,0,0);stroke-width:.1" />
<line x1="90" y1="110" x2="90" y2="130" style="stroke:rgb(0,0,0);stroke-width:.1" />
<circle cx="90" cy="110" r="2" stroke="black" stroke-width=".5" fill="white" />
<circle cx="110" cy="110" r="2" stroke="black" stroke-width=".5" fill="black" />
<line x1="130" y1="110" x2="150" y2="110" style="stroke:rgb(0,0,0);stroke-width:.1" />
<line x1="130" y1="110" x2="110" y2="110" style="stroke:rgb(0,0,0);stroke-width:.1" />
<line x1="130" y1="110" x2="130" y2="90" style="stroke:rgb(0,0,0);stroke-width:.1" />
<line x1="130" y1="110" x2="130" y2="130" style="stroke:rgb(0,0,0);stroke-width:.1" />
<circle cx="130" cy="110" r="2" stroke="black" stroke-width=".5" fill="white" />
<circle cx="150" cy="110" r="2" stroke="black" stroke-width=".5" fill="black" />
<circle cx="50" cy="130" r="2" stroke="black" stroke-width=".5" fill="black" />
<line x1="70" y1="130" x2="90" y2="130" style="stroke:rgb(0,0,0);stroke-width:.1" />
<line x1="70" y1="130" x2="50" y2="130" style="stroke:rgb(0,0,0);stroke-width:.1" />
<line x1="70" y1="130" x2="70" y2="110" style="stroke:rgb(0,0,0);stroke-width:.1" />
<line x1="70" y1="130" x2="70" y2="150" style="stroke:rgb(0,0,0);stroke-width:.1" />
<circle cx="70" cy="130" r="2" stroke="black" stroke-width=".5" fill="white" />
<circle cx="90" cy="130" r="2" stroke="black" stroke-width=".5" fill="black" />
<line x1="110" y1="130" x2="130" y2="130" style="stroke:rgb(0,0,0);stroke-width:.1" />
<line x1="110" y1="130" x2="90" y2="130" style="stroke:rgb(0,0,0);stroke-width:.1" />
<line x1="110" y1="130" x2="110" y2="110" style="stroke:rgb(0,0,0);stroke-width:.1" />
<line x1="110" y1="130" x2="110" y2="150" style="stroke:rgb(0,0,0);stroke-width:.1" />
<circle cx="110" cy="130" r="2" stroke="black" stroke-width=".5" fill="white" />
<circle cx="130" cy="130" r="2" stroke="black" stroke-width=".5" fill="black" />
<line x1="150" y1="130" x2="130" y2="130" style="stroke:rgb(0,0,0);stroke-width:.1" />
<line x1="150" y1="130" x2="150" y2="110" style="stroke:rgb(0,0,0);stroke-width:.1" />
<line x1="150" y1="130" x2="150" y2="150" style="stroke:rgb(0,0,0);stroke-width:.1" />
<circle cx="150" cy="130" r="2" stroke="black" stroke-width=".5" fill="white" />
<line x1="50" y1="150" x2="70" y2="150" style="stroke:rgb(0,0,0);stroke-width:.1" />
<line x1="50" y1="150" x2="50" y2="130" style="stroke:rgb(0,0,0);stroke-width:.1" />
<circle cx="50" cy="150" r="2" stroke="black" stroke-width=".5" fill="white" />
<circle cx="70" cy="150" r="2" stroke="black" stroke-width=".5" fill="black" />
<line x1="90" y1="150" x2="110" y2="150" style="stroke:rgb(0,0,0);stroke-width:.1" />
<line x1="90" y1="150" x2="70" y2="150" style="stroke:rgb(0,0,0);stroke-width:.1" />
<line x1="90" y1="150" x2="90" y2="130" style="stroke:rgb(0,0,0);stroke-width:.1" />
<circle cx="90" cy="150" r="2" stroke="black" stroke-width=".5" fill="white" />
<circle cx="110" cy="150" r="2" stroke="black" stroke-width=".5" fill="black" />
<line x1="130" y1="150" x2="150" y2="150" style="stroke:rgb(0,0,0);stroke-width:.1" />
<line x1="130" y1="150" x2="110" y2="150" style="stroke:rgb(0,0,0);stroke-width:.1" />
<line x1="130" y1="150" x2="130" y2="130" style="stroke:rgb(0,0,0);stroke-width:.1" />
<circle cx="130" cy="150" r="2" stroke="black" stroke-width=".5" fill="white" />
<circle cx="150" cy="150" r="2" stroke="black" stroke-width=".5" fill="black" />
</svg>